<svg width="53" height="45" viewBox="0 0 53 45" fill="none" xmlns="http://www.w3.org/2000/svg">
<rect width="53" height="45" rx="12" fill="white"/>
<path d="M37.1519 15.8445L30.2087 8.841C29.6769 8.3045 28.9437 8 28.1819 8H17.875C16.2937 8 15.0144 9.305 15.0144 10.9L15 34.1C15 35.695 16.2794 37 17.8606 37H35.125C36.7062 37 38 35.695 38 34.1V17.9035C38 17.135 37.6981 16.3955 37.1519 15.8445ZM23.9556 30.1705L20.9081 27.0965C20.3475 26.531 20.3475 25.6175 20.9081 25.052C21.4687 24.4865 22.3744 24.4865 22.935 25.052L24.9619 27.0965L30.0506 21.9635C30.6112 21.398 31.5169 21.398 32.0775 21.9635C32.6381 22.529 32.6381 23.4425 32.0775 24.008L25.9825 30.156C25.4363 30.736 24.5162 30.736 23.9556 30.1705ZM29.375 18.15C28.5844 18.15 27.9375 17.4975 27.9375 16.7V10.175L35.8438 18.15H29.375Z" fill="#9C16C8"/>
</svg>
