<svg width="46" height="46" viewBox="0 0 46 46" fill="none" xmlns="http://www.w3.org/2000/svg">
<rect width="46" height="46" rx="23" fill="#002E9E"/>
<path d="M31.0162 31.1336V32.6518C31.0162 32.8433 30.8634 33 30.668 33H16.9174C16.7259 33 16.5692 32.8433 16.5692 32.6518V31.1336C16.5692 30.5452 16.6876 30.0298 16.9174 29.6085C16.9209 29.598 16.9275 29.5911 16.9314 29.5806C17.3109 28.9051 17.976 28.449 18.9576 28.2017C18.9483 28.1808 18.9424 28.1584 18.9401 28.1356C18.6825 26.5896 19.9639 25.6216 21.2035 24.6849C21.973 24.1069 22.7669 23.5045 23.2022 22.7767C23.5155 22.2509 23.627 21.8366 23.5086 21.6346C23.4288 21.5023 23.2335 21.4431 23.0768 21.4222C22.7704 21.9306 21.8268 23.1493 19.7515 23.3373C19.4067 23.6472 19.1595 23.8979 18.9576 24.1034C18.4983 24.57 18.2194 24.852 17.6695 24.852C17.1925 24.852 15.8202 24.5003 15.246 23.6229C14.9327 23.1423 14.8978 22.5817 15.1517 22.0002C15.8168 20.4751 17.2339 18.7236 17.5856 18.3023C17.6236 17.6999 17.906 15.1719 19.8246 14.7332C20.037 13.6781 20.3364 13.1489 20.7856 13.027C21.1303 12.9295 21.4893 13.0966 21.848 13.518C22.5583 14.3432 23.0841 14.6949 23.6722 14.7297C24.3934 14.775 28.8713 16.2653 29.7975 19.5036C30.6753 22.5782 30.4765 26.412 29.3347 28.4211C29.3309 28.4281 29.3274 28.435 29.3208 28.4385C29.9542 28.7066 30.4069 29.1036 30.6858 29.6363C30.6893 29.6468 30.6959 29.6572 30.7032 29.6677C30.9118 30.0786 31.0162 30.5695 31.0162 31.1336Z" fill="white"/>
</svg>
