<svg width="45" height="32" viewBox="0 0 45 32" fill="none" xmlns="http://www.w3.org/2000/svg">
<path d="M2.70957 8.1287L0.219371 0.658114C0.111449 0.334348 0.352432 0 0.693711 0H30.1176C37.6471 0 44.2353 4.70588 44.2353 16C44.2353 27.2941 34.8235 31.3725 30.1176 32H15.7973C15.4436 32 15.2017 31.6427 15.3331 31.3143L18.6978 22.9025C18.7737 22.7127 18.9576 22.5882 19.162 22.5882H28.1998C28.2234 22.5882 28.2463 22.5898 28.2697 22.593C30.4769 22.8927 34.8235 21.9922 34.8235 16C34.8235 9.97647 30.4314 8.47059 28.2353 8.47059H3.18391C2.96869 8.47059 2.77762 8.33287 2.70957 8.1287Z" fill="url(#paint0_linear_1174_2534)"/>
<path d="M7.84189 21.8852L11.1621 14.4146C11.2424 14.234 11.4215 14.1176 11.6191 14.1176H20.828C21.2021 14.1176 21.4437 14.5134 21.2727 14.8462L17.4336 22.3168C17.348 22.4834 17.1763 22.5882 16.9889 22.5882H8.29879C7.93696 22.5882 7.69493 22.2158 7.84189 21.8852Z" fill="url(#paint1_linear_1174_2534)"/>
<defs>
<linearGradient id="paint0_linear_1174_2534" x1="1.8591" y1="8.53592" x2="33.1784" y2="33.2161" gradientUnits="userSpaceOnUse">
<stop stop-color="#0054E9"/>
<stop offset="1" stop-color="#0054E9"/>
</linearGradient>
<linearGradient id="paint1_linear_1174_2534" x1="8.12274" y1="16.3772" x2="16.6384" y2="24.4678" gradientUnits="userSpaceOnUse">
<stop stop-color="#0054E9"/>
<stop offset="1" stop-color="#0054E9"/>
</linearGradient>
</defs>
</svg>
