<svg width="31" height="31" viewBox="0 0 31 31" fill="none" xmlns="http://www.w3.org/2000/svg">
<path d="M15.5 14.5918C17.0024 14.5918 18.2246 13.3696 18.2246 11.8672C18.2246 10.3648 17.0024 9.14258 15.5 9.14258C13.9976 9.14258 12.7754 10.3648 12.7754 11.8672C12.7754 12.2866 12.8785 12.6793 13.0486 13.0345L11.4911 14.5918H4.60156C4.09957 14.5918 3.69336 14.998 3.69336 15.5C3.69336 16.002 4.09957 16.4082 4.60156 16.4082H11.8672C12.1084 16.4082 12.339 16.3124 12.5093 16.1421L14.3328 14.3187C14.688 14.4887 15.0805 14.5918 15.5 14.5918ZM26.3984 14.5918H19.1328C19.0135 14.5918 18.8954 14.6153 18.7853 14.6609C18.6751 14.7066 18.575 14.7735 18.4907 14.8579L16.6672 16.6813C16.312 16.5113 15.9195 16.4082 15.5 16.4082C13.9976 16.4082 12.7754 17.6304 12.7754 19.1328C12.7754 20.6352 13.9976 21.8574 15.5 21.8574C17.0024 21.8574 18.2246 20.6352 18.2246 19.1328C18.2246 18.7134 18.1215 18.3208 17.9514 17.9655L19.5089 16.4082H26.3984C26.9004 16.4082 27.3066 16.002 27.3066 15.5C27.3066 14.998 26.9004 14.5918 26.3984 14.5918ZM10.0508 18.2246H5.35719C4.85519 18.2246 4.44898 18.6308 4.44898 19.1328C4.44898 19.6348 4.85519 20.041 5.35719 20.041H10.0508C10.5528 20.041 10.959 19.6348 10.959 19.1328C10.959 18.6308 10.5528 18.2246 10.0508 18.2246ZM20.9492 12.7754H25.6428C26.1448 12.7754 26.551 12.3692 26.551 11.8672C26.551 11.3652 26.1448 10.959 25.6428 10.959H20.9492C20.4472 10.959 20.041 11.3652 20.041 11.8672C20.041 12.3692 20.4472 12.7754 20.9492 12.7754Z" fill="url(#paint0_linear_1181_2898)"/>
<path d="M30.0312 12.7148H28.8821C28.5357 11.0332 27.8792 9.44937 26.9303 8.00611L27.7491 7.18728C28.1121 6.82454 28.1097 6.19043 27.7491 5.83024L25.1699 3.25082C24.7993 2.88028 24.1803 2.88312 23.8126 3.25082L22.9939 4.06966C21.5508 3.12083 19.9668 2.46444 18.2852 2.11811V0.96875C18.2852 0.425523 17.8596 0 17.3164 0H13.6836C13.1404 0 12.7148 0.425523 12.7148 0.96875V2.11811C11.0332 2.46444 9.44925 3.12089 8.00605 4.06972L7.1874 3.25088C6.81679 2.88034 6.19788 2.88324 5.83018 3.25088L3.251 5.83024C2.88863 6.19213 2.88966 6.82648 3.251 7.18728L4.06966 8.00611C3.12077 9.44955 2.46432 11.0334 2.11799 12.7148H0.96875C0.425523 12.7148 0 13.1404 0 13.6836V17.3164C0 17.8596 0.425523 18.2852 0.96875 18.2852H2.11799C2.46426 19.9665 3.12077 21.5503 4.06966 22.9939L3.251 23.8126C2.88918 24.1742 2.88912 24.8082 3.251 25.1698L5.83018 27.7491C6.20079 28.1196 6.8197 28.1168 7.1874 27.7491L8.00605 26.9303C9.44937 27.8791 11.0332 28.5356 12.7148 28.8818V30.0312C12.7148 30.5745 13.1404 31 13.6836 31H17.3164C17.8596 31 18.2852 30.5745 18.2852 30.0312V28.8818C19.9667 28.5356 21.5506 27.8791 22.9939 26.9303L23.8126 27.7491C24.1824 28.1188 24.8012 28.1177 25.1699 27.7491L27.7491 25.1698C28.1115 24.8076 28.1103 24.1738 27.7491 23.8127L26.9303 22.9939C27.8792 21.5506 28.5357 19.9667 28.8821 18.2852H30.0312C30.5745 18.2852 31 17.8597 31 17.3165V13.6837C31 13.1404 30.5745 12.7148 30.0312 12.7148ZM15.5 25.4297C10.0247 25.4297 5.57031 20.9753 5.57031 15.5C5.57031 10.0247 10.0247 5.57031 15.5 5.57031C20.9753 5.57031 25.4297 10.0247 25.4297 15.5C25.4297 20.9753 20.9753 25.4297 15.5 25.4297Z" fill="url(#paint1_linear_1181_2898)"/>
<defs>
<linearGradient id="paint0_linear_1181_2898" x1="15.5" y1="21.8574" x2="15.5" y2="9.14258" gradientUnits="userSpaceOnUse">
<stop stop-color="#FFBEF9"/>
<stop offset="1" stop-color="#FFF1FF"/>
</linearGradient>
<linearGradient id="paint1_linear_1181_2898" x1="15.5" y1="31" x2="15.5" y2="0" gradientUnits="userSpaceOnUse">
<stop stop-color="#A93AFF"/>
<stop offset="1" stop-color="#FF81FF"/>
</linearGradient>
</defs>
</svg>
