<svg width="5" height="5" viewBox="0 0 5 5" fill="none" xmlns="http://www.w3.org/2000/svg">
<path d="M3.325 2.50018L4.87181 0.953346C5.04271 0.782439 5.04271 0.505351 4.87181 0.334704L4.6656 0.128508C4.49463 -0.0424396 4.21755 -0.0424396 4.04691 0.128508L2.50016 1.67528L0.953346 0.12818C0.782439 -0.0427267 0.505351 -0.0427267 0.334704 0.12818L0.12818 0.334403C-0.0427267 0.505365 -0.0427267 0.782453 0.12818 0.953087L1.67526 2.50016L0.128495 4.04695C-0.0424533 4.2179 -0.0424533 4.49499 0.128495 4.66564L0.334704 4.87182C0.505611 5.04273 0.782699 5.04273 0.953346 4.87182L2.50015 3.32502L4.04694 4.87182C4.21789 5.04273 4.49498 5.04273 4.66562 4.87182L4.87182 4.66561C5.04273 4.49465 5.04273 4.21756 4.87182 4.04693L3.325 2.50018Z" fill="white"/>
</svg>
