<svg width="22" height="25" viewBox="0 0 22 25" fill="none" xmlns="http://www.w3.org/2000/svg">
<path d="M7.93787 24.8393C8.82032 24.9439 9.74761 25 10.7043 25C16.6161 25 21.4086 22.868 21.4086 20.238V17.4123C21.4086 16.1238 20.364 15.0793 19.0755 15.0793H13.5427L7.93787 24.8392V24.8393Z" fill="url(#paint0_linear_1181_2906)"/>
<path d="M0 17.4123V20.238C0 22.4423 3.36709 24.2967 7.93787 24.8393C12.5086 24.2967 15.8757 22.4423 15.8757 20.238V17.4123C15.8757 16.1238 14.8312 15.0793 13.5427 15.0793H2.33302C1.04448 15.0793 0 16.1238 0 17.4123Z" fill="url(#paint1_linear_1181_2906)"/>
<path d="M13.5427 9.92053H19.0755C20.364 9.92053 21.4086 10.9651 21.4086 12.2535V15.0792C21.4086 17.7091 16.6161 19.8412 10.7043 19.8412C9.74761 19.8412 8.82032 19.7852 7.93787 19.6804L13.5427 9.92053Z" fill="url(#paint2_linear_1181_2906)"/>
<path d="M0 12.2535V15.0792C0 17.2836 3.36709 19.138 7.93787 19.6805C12.5086 19.138 15.8757 17.2836 15.8757 15.0792V12.2535C15.8757 10.965 14.8312 9.92053 13.5427 9.92053H2.33302C1.04448 9.92053 0 10.9651 0 12.2535Z" fill="url(#paint3_linear_1181_2906)"/>
<path d="M0 9.92071C0 12.5507 4.7925 14.6828 10.7043 14.6828C16.6161 14.6828 21.4086 12.5507 21.4086 9.92071V7.0951C21.4086 5.80661 20.364 4.76208 19.0755 4.76208H2.33302C1.04453 4.76208 0 5.80661 0 7.0951V9.92071Z" fill="url(#paint4_linear_1181_2906)"/>
<path d="M7.93787 0.160729C8.82032 0.0560415 9.74761 0 10.7043 0C16.6161 0 21.4086 2.13202 21.4086 4.76201C21.4086 7.392 16.6161 9.52408 10.7043 9.52408C9.74761 9.52408 8.82032 9.46809 7.93787 9.36335V0.160729Z" fill="url(#paint5_linear_1181_2906)"/>
<path d="M7.93787 0.161011C3.36709 0.703561 0 2.55793 0 4.76229C0 6.96666 3.36709 8.82113 7.93787 9.36363C12.5086 8.82108 15.8757 6.96671 15.8757 4.76229C15.8757 2.55788 12.5086 0.703561 7.93787 0.161011Z" fill="url(#paint6_linear_1181_2906)"/>
<path d="M9.71822 12.8532C10.2628 12.8532 10.7043 12.4117 10.7043 11.8671C10.7043 11.3226 10.2628 10.8811 9.71822 10.8811C9.17364 10.8811 8.73218 11.3226 8.73218 11.8671C8.73218 12.4117 9.17364 12.8532 9.71822 12.8532Z" fill="url(#paint7_linear_1181_2906)"/>
<path d="M6.15743 12.3451C6.70201 12.3451 7.14347 11.9037 7.14347 11.3591C7.14347 10.8145 6.70201 10.373 6.15743 10.373C5.61285 10.373 5.17139 10.8145 5.17139 11.3591C5.17139 11.9037 5.61285 12.3451 6.15743 12.3451Z" fill="url(#paint8_linear_1181_2906)"/>
<path d="M2.80062 11.3593C3.34519 11.3593 3.78666 10.9178 3.78666 10.3732C3.78666 9.82867 3.34519 9.38721 2.80062 9.38721C2.25604 9.38721 1.81458 9.82867 1.81458 10.3732C1.81458 10.9178 2.25604 11.3593 2.80062 11.3593Z" fill="url(#paint9_linear_1181_2906)"/>
<defs>
<linearGradient id="paint0_linear_1181_2906" x1="14.6732" y1="34.685" x2="14.6732" y2="4.86642" gradientUnits="userSpaceOnUse">
<stop stop-color="#EDBAF7"/>
<stop offset="0.999" stop-color="#EEE6F5"/>
</linearGradient>
<linearGradient id="paint1_linear_1181_2906" x1="7.93787" y1="26.6481" x2="7.93787" y2="-7.96785" gradientUnits="userSpaceOnUse">
<stop stop-color="#EDBAF7"/>
<stop offset="0.999" stop-color="#EEE6F5"/>
</linearGradient>
<linearGradient id="paint2_linear_1181_2906" x1="14.6732" y1="23.7183" x2="14.6732" y2="9.676" gradientUnits="userSpaceOnUse">
<stop offset="0.001" stop-color="#D48CF8"/>
<stop offset="0.999" stop-color="#F7BFFF"/>
</linearGradient>
<linearGradient id="paint3_linear_1181_2906" x1="7.93787" y1="23.4498" x2="7.93787" y2="-6.54169" gradientUnits="userSpaceOnUse">
<stop offset="0.001" stop-color="#D48CF8"/>
<stop offset="0.999" stop-color="#F7BFFF"/>
</linearGradient>
<linearGradient id="paint4_linear_1181_2906" x1="10.7043" y1="20.5316" x2="10.7043" y2="1.69595" gradientUnits="userSpaceOnUse">
<stop stop-color="#9C40F2"/>
<stop offset="0.999" stop-color="#E9A5F0"/>
</linearGradient>
<linearGradient id="paint5_linear_1181_2906" x1="14.6732" y1="19.0606" x2="14.6732" y2="-0.538123" gradientUnits="userSpaceOnUse">
<stop offset="0.001" stop-color="#6B17F2"/>
<stop offset="1" stop-color="#8C47E6"/>
</linearGradient>
<linearGradient id="paint6_linear_1181_2906" x1="7.93787" y1="16.6942" x2="7.93787" y2="-10.8756" gradientUnits="userSpaceOnUse">
<stop offset="0.001" stop-color="#6B17F2"/>
<stop offset="1" stop-color="#8C47E6"/>
</linearGradient>
<linearGradient id="paint7_linear_1181_2906" x1="9.71822" y1="13.28" x2="9.71822" y2="11.1243" gradientUnits="userSpaceOnUse">
<stop offset="0.001" stop-color="#E9E4EB"/>
<stop offset="1" stop-color="#FCFFFB"/>
</linearGradient>
<linearGradient id="paint8_linear_1181_2906" x1="6.15743" y1="12.761" x2="6.15743" y2="10.634" gradientUnits="userSpaceOnUse">
<stop offset="0.001" stop-color="#E9E4EB"/>
<stop offset="1" stop-color="#FCFFFB"/>
</linearGradient>
<linearGradient id="paint9_linear_1181_2906" x1="2.80062" y1="11.9396" x2="2.80062" y2="9.38273" gradientUnits="userSpaceOnUse">
<stop offset="0.001" stop-color="#E9E4EB"/>
<stop offset="1" stop-color="#FCFFFB"/>
</linearGradient>
</defs>
</svg>
