<svg width="27" height="20" viewBox="0 0 27 20" fill="none" xmlns="http://www.w3.org/2000/svg">
<path d="M1.09354 0.00012207H25.0748C25.6778 0.00012207 26.1683 0.490679 26.1683 1.09366V15.1052C26.1683 15.7082 25.6778 16.1987 25.0748 16.1987H1.09354C0.49056 16.1987 0 15.7082 0 15.1052V1.09366C0 0.490679 0.49056 0.00012207 1.09354 0.00012207Z" fill="url(#paint0_linear_1180_2876)"/>
<path d="M0.09198 0.659424C0.03066 0.792283 0 0.940472 0 1.09377V15.1053C0 15.7083 0.49056 16.1988 1.09354 16.1988H11.3442V0.659424H0.09198Z" fill="url(#paint1_linear_1180_2876)"/>
<path d="M11.9828 9.42305L18.7586 16.1989H25.0746C25.6776 16.1989 26.1681 15.7083 26.1681 15.1053V1.0938C26.1681 0.945616 26.1375 0.797427 26.0813 0.669678L11.9828 9.42305Z" fill="url(#paint2_linear_1180_2876)"/>
<path d="M25.0697 16.1984H1.09354C0.64386 16.1984 0.26061 15.9276 0.09198 15.5393L11.9829 6.77566C12.637 6.29532 13.5313 6.29532 14.1854 6.77566L26.0763 15.5393C25.9077 15.9276 25.5193 16.1984 25.0697 16.1984Z" fill="url(#paint3_linear_1180_2876)"/>
<path d="M0 7.04663V15.1102C0 15.7131 0.49056 16.2037 1.09354 16.2037H25.0748C25.6778 16.2037 26.1683 15.7131 26.1683 15.1102V7.04663H0Z" fill="url(#paint4_linear_1180_2876)"/>
<path d="M25.0697 0H14.6862V16.1935H25.0748C25.6778 16.1935 26.1684 15.7029 26.1684 15.1V1.09353C26.1633 0.490557 25.6727 0 25.0697 0Z" fill="url(#paint5_linear_1180_2876)"/>
<path d="M11.9828 9.42305L18.7586 16.1989H25.0746C25.6776 16.1989 26.1681 15.7083 26.1681 15.1053V1.0938C26.1681 0.945616 26.1375 0.797427 26.0813 0.669678L11.9828 9.42305Z" fill="url(#paint6_linear_1180_2876)"/>
<path d="M25.0697 0H1.09354C0.64386 0 0.26061 0.270828 0.09198 0.659186L11.9829 9.42278C12.637 9.90312 13.5313 9.90312 14.1854 9.42278L26.0712 0.659186C25.9077 0.270828 25.5193 0 25.0697 0Z" fill="url(#paint7_linear_1180_2876)"/>
<path d="M25.0697 0H1.09354C0.64386 0 0.26061 0.270828 0.09198 0.659186L11.9829 9.42278C12.637 9.90312 13.5313 9.90312 14.1854 9.42278L26.0712 0.659186C25.9077 0.270828 25.5193 0 25.0697 0Z" fill="url(#paint8_linear_1180_2876)"/>
<path d="M10.7463 14.5789L12.3661 16.1987H15.1511L10.7463 14.5789Z" fill="url(#paint9_linear_1180_2876)"/>
<path d="M25.0697 16.1986C25.6726 16.1986 26.1632 15.708 26.1632 15.1051V6.08595L24.4054 4.32812L23.1636 5.56985V16.1935H25.0697V16.1986Z" fill="url(#paint10_linear_1180_2876)"/>
<path d="M16.3776 16.771V19.5866C16.3776 19.9545 16.8221 20.1385 17.0827 19.8779L19.5815 17.3791L16.3776 16.771Z" fill="url(#paint11_linear_1180_2876)"/>
<path d="M16.3776 16.771V19.5866C16.3776 19.9545 16.8221 20.1385 17.0827 19.8779L19.5815 17.3791L16.3776 16.771Z" fill="url(#paint12_linear_1180_2876)"/>
<path d="M16.3776 16.771V19.5866C16.3776 19.9545 16.8221 20.1385 17.0827 19.8779L19.5815 17.3791L16.3776 16.771Z" fill="url(#paint13_linear_1180_2876)"/>
<path d="M10.8793 14.6556L23.2863 19.4283C23.598 19.5459 23.9353 19.3261 23.9455 18.994L24.5025 4.64521C24.5178 4.23641 24.0528 3.99113 23.7258 4.23641L10.7617 13.8074C10.4551 14.0373 10.5164 14.5177 10.8793 14.6556Z" fill="url(#paint14_linear_1180_2876)"/>
<path d="M16.776 9.3667L10.7666 13.8073C10.46 14.0372 10.5213 14.5175 10.879 14.6555L23.2861 19.4282C23.5978 19.5458 23.9351 19.326 23.9453 18.9939L24.2059 12.3458L16.776 9.3667Z" fill="url(#paint15_linear_1180_2876)"/>
<path d="M24.2061 4.17523L16.3776 16.7713L10.8793 14.6558C10.5216 14.5178 10.4551 14.0375 10.7668 13.8126L23.7309 4.23655C23.8791 4.11902 24.0579 4.11391 24.2061 4.17523Z" fill="url(#paint16_linear_1180_2876)"/>
<path d="M24.2061 4.17554L16.3776 16.7716L23.2863 19.4288C23.598 19.5514 23.9353 19.3266 23.9455 18.9944L24.5025 4.64565C24.5127 4.42082 24.3798 4.24708 24.2061 4.17554Z" fill="url(#paint17_linear_1180_2876)"/>
<defs>
<linearGradient id="paint0_linear_1180_2876" x1="11.2457" y1="2.92905" x2="16.3085" y2="17.1876" gradientUnits="userSpaceOnUse">
<stop stop-color="#FEF0AE"/>
<stop offset="1" stop-color="#FAC600"/>
</linearGradient>
<linearGradient id="paint1_linear_1180_2876" x1="5.93639" y1="8.20618" x2="8.72909" y2="5.36451" gradientUnits="userSpaceOnUse">
<stop stop-color="#FE9738" stop-opacity="0"/>
<stop offset="0.102" stop-color="#FE9738" stop-opacity="0.02"/>
<stop offset="0.227" stop-color="#FE9738" stop-opacity="0.078"/>
<stop offset="0.361" stop-color="#FE9738" stop-opacity="0.175"/>
<stop offset="0.505" stop-color="#FE9738" stop-opacity="0.31"/>
<stop offset="0.654" stop-color="#FE9738" stop-opacity="0.483"/>
<stop offset="0.808" stop-color="#FE9738" stop-opacity="0.695"/>
<stop offset="0.965" stop-color="#FE9738" stop-opacity="0.94"/>
<stop offset="1" stop-color="#FE9738"/>
</linearGradient>
<linearGradient id="paint2_linear_1180_2876" x1="21.239" y1="8.90444" x2="19.4262" y2="11.8442" gradientUnits="userSpaceOnUse">
<stop stop-color="#FE9738" stop-opacity="0"/>
<stop offset="0.102" stop-color="#FE9738" stop-opacity="0.02"/>
<stop offset="0.227" stop-color="#FE9738" stop-opacity="0.078"/>
<stop offset="0.361" stop-color="#FE9738" stop-opacity="0.175"/>
<stop offset="0.505" stop-color="#FE9738" stop-opacity="0.31"/>
<stop offset="0.654" stop-color="#FE9738" stop-opacity="0.483"/>
<stop offset="0.808" stop-color="#FE9738" stop-opacity="0.695"/>
<stop offset="0.965" stop-color="#FE9738" stop-opacity="0.94"/>
<stop offset="1" stop-color="#FE9738"/>
</linearGradient>
<linearGradient id="paint3_linear_1180_2876" x1="10.8544" y1="9.28164" x2="13.941" y2="17.9537" gradientUnits="userSpaceOnUse">
<stop stop-color="#FEF0AE"/>
<stop offset="1" stop-color="#FAC600"/>
</linearGradient>
<linearGradient id="paint4_linear_1180_2876" x1="13.0816" y1="14.1884" x2="13.0816" y2="16.0177" gradientUnits="userSpaceOnUse">
<stop stop-color="#FE9738" stop-opacity="0"/>
<stop offset="0.102" stop-color="#FE9738" stop-opacity="0.02"/>
<stop offset="0.227" stop-color="#FE9738" stop-opacity="0.078"/>
<stop offset="0.361" stop-color="#FE9738" stop-opacity="0.175"/>
<stop offset="0.505" stop-color="#FE9738" stop-opacity="0.31"/>
<stop offset="0.654" stop-color="#FE9738" stop-opacity="0.483"/>
<stop offset="0.808" stop-color="#FE9738" stop-opacity="0.695"/>
<stop offset="0.965" stop-color="#FE9738" stop-opacity="0.94"/>
<stop offset="1" stop-color="#FE9738"/>
</linearGradient>
<linearGradient id="paint5_linear_1180_2876" x1="24.4832" y1="8.09945" x2="26.247" y2="8.09945" gradientUnits="userSpaceOnUse">
<stop stop-color="#FE9738" stop-opacity="0"/>
<stop offset="0.102" stop-color="#FE9738" stop-opacity="0.02"/>
<stop offset="0.227" stop-color="#FE9738" stop-opacity="0.078"/>
<stop offset="0.361" stop-color="#FE9738" stop-opacity="0.175"/>
<stop offset="0.505" stop-color="#FE9738" stop-opacity="0.31"/>
<stop offset="0.654" stop-color="#FE9738" stop-opacity="0.483"/>
<stop offset="0.808" stop-color="#FE9738" stop-opacity="0.695"/>
<stop offset="0.965" stop-color="#FE9738" stop-opacity="0.94"/>
<stop offset="1" stop-color="#FE9738"/>
</linearGradient>
<linearGradient id="paint6_linear_1180_2876" x1="21.0929" y1="8.06891" x2="18.9862" y2="4.98228" gradientUnits="userSpaceOnUse">
<stop stop-color="#FE9738" stop-opacity="0"/>
<stop offset="0.102" stop-color="#FE9738" stop-opacity="0.02"/>
<stop offset="0.227" stop-color="#FE9738" stop-opacity="0.078"/>
<stop offset="0.361" stop-color="#FE9738" stop-opacity="0.175"/>
<stop offset="0.505" stop-color="#FE9738" stop-opacity="0.31"/>
<stop offset="0.654" stop-color="#FE9738" stop-opacity="0.483"/>
<stop offset="0.808" stop-color="#FE9738" stop-opacity="0.695"/>
<stop offset="0.965" stop-color="#FE9738" stop-opacity="0.94"/>
<stop offset="1" stop-color="#FE9738"/>
</linearGradient>
<linearGradient id="paint7_linear_1180_2876" x1="13.2502" y1="1.129" x2="15.9694" y2="8.69871" gradientUnits="userSpaceOnUse">
<stop stop-color="#FEF0AE"/>
<stop offset="1" stop-color="#FAC600"/>
</linearGradient>
<linearGradient id="paint8_linear_1180_2876" x1="16.2406" y1="6.04039" x2="17.2501" y2="7.76256" gradientUnits="userSpaceOnUse">
<stop stop-color="#FEF0AE" stop-opacity="0"/>
<stop offset="0.1" stop-color="#FEF0AE" stop-opacity="0.021"/>
<stop offset="0.224" stop-color="#FEF0AE" stop-opacity="0.081"/>
<stop offset="0.361" stop-color="#FEF0AE" stop-opacity="0.181"/>
<stop offset="0.507" stop-color="#FEF0AE" stop-opacity="0.32"/>
<stop offset="0.66" stop-color="#FEF0AE" stop-opacity="0.498"/>
<stop offset="0.82" stop-color="#FEF0AE" stop-opacity="0.717"/>
<stop offset="0.982" stop-color="#FEF0AE" stop-opacity="0.97"/>
<stop offset="1" stop-color="#FEF0AE"/>
</linearGradient>
<linearGradient id="paint9_linear_1180_2876" x1="12.6211" y1="16.6945" x2="12.9775" y2="15.2804" gradientUnits="userSpaceOnUse">
<stop stop-color="#FE9738" stop-opacity="0"/>
<stop offset="0.102" stop-color="#FE9738" stop-opacity="0.02"/>
<stop offset="0.227" stop-color="#FE9738" stop-opacity="0.078"/>
<stop offset="0.361" stop-color="#FE9738" stop-opacity="0.175"/>
<stop offset="0.505" stop-color="#FE9738" stop-opacity="0.31"/>
<stop offset="0.654" stop-color="#FE9738" stop-opacity="0.483"/>
<stop offset="0.808" stop-color="#FE9738" stop-opacity="0.695"/>
<stop offset="0.965" stop-color="#FE9738" stop-opacity="0.94"/>
<stop offset="1" stop-color="#FE9738"/>
</linearGradient>
<linearGradient id="paint10_linear_1180_2876" x1="26.3419" y1="10.5375" x2="23.8477" y2="10.2702" gradientUnits="userSpaceOnUse">
<stop stop-color="#FE9738" stop-opacity="0"/>
<stop offset="0.102" stop-color="#FE9738" stop-opacity="0.02"/>
<stop offset="0.227" stop-color="#FE9738" stop-opacity="0.078"/>
<stop offset="0.361" stop-color="#FE9738" stop-opacity="0.175"/>
<stop offset="0.505" stop-color="#FE9738" stop-opacity="0.31"/>
<stop offset="0.654" stop-color="#FE9738" stop-opacity="0.483"/>
<stop offset="0.808" stop-color="#FE9738" stop-opacity="0.695"/>
<stop offset="0.965" stop-color="#FE9738" stop-opacity="0.94"/>
<stop offset="1" stop-color="#FE9738"/>
</linearGradient>
<linearGradient id="paint11_linear_1180_2876" x1="16.3596" y1="17.0356" x2="18.3997" y2="18.9738" gradientUnits="userSpaceOnUse">
<stop stop-color="#C8EFFE"/>
<stop offset="0.103" stop-color="#C0EDFD"/>
<stop offset="0.258" stop-color="#ABEAFD"/>
<stop offset="0.447" stop-color="#89E5FD"/>
<stop offset="0.661" stop-color="#5ADDFC"/>
<stop offset="0.895" stop-color="#1ED4FB"/>
<stop offset="1" stop-color="#01D0FB"/>
</linearGradient>
<linearGradient id="paint12_linear_1180_2876" x1="17.1831" y1="18.8797" x2="17.9226" y2="17.1966" gradientUnits="userSpaceOnUse">
<stop stop-color="#0290CF" stop-opacity="0"/>
<stop offset="0.219" stop-color="#0290CF" stop-opacity="0.013"/>
<stop offset="0.364" stop-color="#0290CF" stop-opacity="0.056"/>
<stop offset="0.487" stop-color="#0290CF" stop-opacity="0.128"/>
<stop offset="0.599" stop-color="#0290CF" stop-opacity="0.231"/>
<stop offset="0.702" stop-color="#0290CF" stop-opacity="0.364"/>
<stop offset="0.799" stop-color="#0290CF" stop-opacity="0.528"/>
<stop offset="0.892" stop-color="#0290CF" stop-opacity="0.722"/>
<stop offset="0.979" stop-color="#0290CF" stop-opacity="0.941"/>
<stop offset="1" stop-color="#0290CF"/>
</linearGradient>
<linearGradient id="paint13_linear_1180_2876" x1="16.4363" y1="17.7703" x2="18.553" y2="18.9179" gradientUnits="userSpaceOnUse">
<stop stop-color="#0290CF" stop-opacity="0"/>
<stop offset="0.219" stop-color="#0290CF" stop-opacity="0.013"/>
<stop offset="0.364" stop-color="#0290CF" stop-opacity="0.056"/>
<stop offset="0.487" stop-color="#0290CF" stop-opacity="0.128"/>
<stop offset="0.599" stop-color="#0290CF" stop-opacity="0.231"/>
<stop offset="0.702" stop-color="#0290CF" stop-opacity="0.364"/>
<stop offset="0.799" stop-color="#0290CF" stop-opacity="0.528"/>
<stop offset="0.892" stop-color="#0290CF" stop-opacity="0.722"/>
<stop offset="0.979" stop-color="#0290CF" stop-opacity="0.941"/>
<stop offset="1" stop-color="#0290CF"/>
</linearGradient>
<linearGradient id="paint14_linear_1180_2876" x1="16.6912" y1="8.56808" x2="23.2442" y2="15.1211" gradientUnits="userSpaceOnUse">
<stop stop-color="#C8EFFE"/>
<stop offset="0.103" stop-color="#C0EDFD"/>
<stop offset="0.258" stop-color="#ABEAFD"/>
<stop offset="0.447" stop-color="#89E5FD"/>
<stop offset="0.661" stop-color="#5ADDFC"/>
<stop offset="0.895" stop-color="#1ED4FB"/>
<stop offset="1" stop-color="#01D0FB"/>
</linearGradient>
<linearGradient id="paint15_linear_1180_2876" x1="17.5355" y1="15.7635" x2="17.0509" y2="17.1916" gradientUnits="userSpaceOnUse">
<stop stop-color="#0290CF" stop-opacity="0"/>
<stop offset="0.219" stop-color="#0290CF" stop-opacity="0.013"/>
<stop offset="0.364" stop-color="#0290CF" stop-opacity="0.056"/>
<stop offset="0.487" stop-color="#0290CF" stop-opacity="0.128"/>
<stop offset="0.599" stop-color="#0290CF" stop-opacity="0.231"/>
<stop offset="0.702" stop-color="#0290CF" stop-opacity="0.364"/>
<stop offset="0.799" stop-color="#0290CF" stop-opacity="0.528"/>
<stop offset="0.892" stop-color="#0290CF" stop-opacity="0.722"/>
<stop offset="0.979" stop-color="#0290CF" stop-opacity="0.941"/>
<stop offset="1" stop-color="#0290CF"/>
</linearGradient>
<linearGradient id="paint16_linear_1180_2876" x1="18.6985" y1="10.2137" x2="20.2286" y2="11.2593" gradientUnits="userSpaceOnUse">
<stop stop-color="#0290CF" stop-opacity="0"/>
<stop offset="0.219" stop-color="#0290CF" stop-opacity="0.013"/>
<stop offset="0.364" stop-color="#0290CF" stop-opacity="0.056"/>
<stop offset="0.487" stop-color="#0290CF" stop-opacity="0.128"/>
<stop offset="0.599" stop-color="#0290CF" stop-opacity="0.231"/>
<stop offset="0.702" stop-color="#0290CF" stop-opacity="0.364"/>
<stop offset="0.799" stop-color="#0290CF" stop-opacity="0.528"/>
<stop offset="0.892" stop-color="#0290CF" stop-opacity="0.722"/>
<stop offset="0.979" stop-color="#0290CF" stop-opacity="0.941"/>
<stop offset="1" stop-color="#0290CF"/>
</linearGradient>
<linearGradient id="paint17_linear_1180_2876" x1="22.9929" y1="11.7416" x2="24.37" y2="11.8691" gradientUnits="userSpaceOnUse">
<stop stop-color="#0290CF" stop-opacity="0"/>
<stop offset="0.219" stop-color="#0290CF" stop-opacity="0.013"/>
<stop offset="0.364" stop-color="#0290CF" stop-opacity="0.056"/>
<stop offset="0.487" stop-color="#0290CF" stop-opacity="0.128"/>
<stop offset="0.599" stop-color="#0290CF" stop-opacity="0.231"/>
<stop offset="0.702" stop-color="#0290CF" stop-opacity="0.364"/>
<stop offset="0.799" stop-color="#0290CF" stop-opacity="0.528"/>
<stop offset="0.892" stop-color="#0290CF" stop-opacity="0.722"/>
<stop offset="0.979" stop-color="#0290CF" stop-opacity="0.941"/>
<stop offset="1" stop-color="#0290CF"/>
</linearGradient>
</defs>
</svg>
