<svg width="26" height="26" viewBox="0 0 26 26" fill="none" xmlns="http://www.w3.org/2000/svg">
<path d="M0.973894 19.5995L0.985421 19.6114C0.942423 19.9684 0.937725 20.3289 0.971406 20.6869L0.00012207 21.6849L0.620409 23.1921L1.93995 23.2071C2.18118 23.529 2.46199 23.8192 2.77575 24.071L2.78961 25.3747L4.2882 25.9993L5.21541 25.0879C5.61399 25.1331 6.0167 25.1278 6.41393 25.0719L7.35708 26L8.85608 25.376L8.87193 23.9798C9.14776 23.7506 9.39818 23.4925 9.61886 23.2098L11.0269 23.1944L11.6482 21.6875L10.664 20.675C10.707 20.318 10.7117 19.9575 10.678 19.5995H8.39621L5.88546 21.1689L3.25354 19.5995H0.973894Z" fill="#D9DDFF"/>
<path d="M8.39613 19.5995C8.5059 20.1207 8.45566 20.6628 8.25202 21.155C7.69617 22.5031 6.15884 23.143 4.81822 22.5842C3.63077 22.0893 2.99677 20.82 3.25352 19.5995L8.39613 19.5995Z" fill="white"/>
<path d="M21.1065 17.7853C20.6139 17.7853 20.1783 17.4659 20.0214 16.9889C20.0176 16.9773 20.0139 16.9655 20.0106 16.9537L18.8556 12.9589L18.1575 16.9062C18.0723 17.3882 17.6607 17.7263 17.1972 17.7263C17.1386 17.7263 17.0801 17.721 17.0225 17.7103C16.4916 17.6125 16.1388 17.0939 16.2346 16.5521L17.5395 9.17351L17.5417 9.16193C17.64 8.64117 18.0708 8.25275 18.5893 8.21735C18.6149 8.2156 18.6405 8.21474 18.6661 8.21476C19.1544 8.21476 19.5937 8.53326 19.7509 9.01111C19.7547 9.02279 19.7583 9.03452 19.7617 9.04635L21.0933 13.6521L22.3769 9.05636C22.3802 9.04478 22.3837 9.0332 22.3873 9.02178C22.541 8.53869 22.9829 8.21436 23.4758 8.21436C23.4974 8.21436 23.519 8.21496 23.5407 8.21623C24.0594 8.24614 24.494 8.6299 24.5977 9.14934L24.6 9.16122L25.9822 16.542C26.0835 17.0829 25.736 17.6051 25.206 17.7085C25.144 17.7206 25.0823 17.7264 25.0216 17.7264C24.562 17.7264 24.1524 17.394 24.063 16.9164L23.3206 12.952L22.2057 16.9434C22.2025 16.955 22.199 16.9665 22.1954 16.978C22.0425 17.4584 21.6073 17.7828 21.1123 17.7853L21.1065 17.7853Z" fill="#7776D0"/>
<path d="M25.9823 16.542L24.6 9.16122L24.5977 9.14934C24.494 8.6299 24.0594 8.24614 23.5407 8.21623C23.5191 8.21498 23.4975 8.21435 23.4758 8.21436C23.0224 8.21436 22.6123 8.48868 22.4298 8.90858C22.4634 8.98592 22.4887 9.06663 22.5052 9.14934L22.5075 9.16122L23.2589 13.1732L23.3206 12.952L24.063 16.9164C24.1524 17.394 24.562 17.7264 25.0216 17.7264C25.0823 17.7264 25.144 17.7206 25.206 17.7085C25.736 17.6051 26.0835 17.0829 25.9823 16.542Z" fill="#6967BF"/>
<path d="M4.68947 17.7854C2.10371 17.7854 0.00012207 15.6386 0.00012207 12.9999C0.00012207 10.3611 2.10371 8.21436 4.68947 8.21436C5.62907 8.21436 6.53591 8.49716 7.31199 9.03224C8.33725 9.73906 7.27909 11.4161 6.21817 10.6846C5.76899 10.3739 5.23567 10.2078 4.68952 10.2084C3.18123 10.2084 1.95417 11.4606 1.95417 12.9999C1.95417 14.5391 3.18123 15.7913 4.68952 15.7913C5.30184 15.7913 5.88587 15.5573 6.27972 15.0781C7.08881 14.0935 8.5806 15.3816 7.77684 16.3596C7.01665 17.2844 5.88063 17.7854 4.68947 17.7854Z" fill="#7776D0"/>
<path d="M5.21952 9.03224C5.70545 9.36719 5.72337 9.92004 5.49486 10.3312C5.75233 10.4121 5.99618 10.5312 6.21823 10.6846C7.27914 11.4161 8.33736 9.73906 7.31205 9.03224C6.53596 8.49721 5.62912 8.21436 4.68953 8.21436C4.33035 8.21436 3.98047 8.25579 3.6442 8.3342C4.20416 8.46455 4.73716 8.69962 5.21952 9.03224ZM6.27972 15.0781C6.16065 15.2231 6.02056 15.3494 5.86408 15.4529C5.96092 15.7352 5.92898 16.0618 5.68427 16.3596C5.14599 17.0145 4.41922 17.4568 3.6178 17.6593C3.96885 17.7433 4.32857 17.7856 4.68953 17.7854C5.88069 17.7854 7.01676 17.2844 7.77679 16.3596C8.5806 15.3816 7.08881 14.0936 6.27972 15.0781Z" fill="#6967BF"/>
<path d="M13.0158 14C14.2221 13.6118 15.0961 12.495 15.0961 11.1805C15.0961 9.54497 13.7432 8.21436 12.0803 8.21436H10.1073L10.1061 8.21441L10.1049 8.21436C9.56536 8.21436 9.12793 8.66072 9.12793 9.21139V16.7883C9.12793 17.339 9.56536 17.7854 10.1049 17.7854C10.6445 17.7854 11.0819 17.339 11.0819 16.7883V14.7758L13.3857 17.4471C13.5788 17.671 13.8484 17.7854 14.1195 17.7854C14.3487 17.7854 14.579 17.7035 14.7645 17.5368C15.1696 17.173 15.209 16.543 14.8524 16.1297L13.0158 14ZM12.0804 10.2084C12.6559 10.2084 13.1421 10.6536 13.1421 11.1806C13.1421 11.7075 12.6559 12.1527 12.0804 12.1527C11.8491 12.1527 11.4622 12.1543 11.0926 12.1561C11.0908 11.7886 11.0893 11.407 11.0893 11.1806C11.0893 10.9863 11.0884 10.593 11.0873 10.2085H12.0804V10.2084Z" fill="#7776D0"/>
<path d="M14.8524 16.1297L13.0157 14C14.222 13.6118 15.096 12.495 15.096 11.1805C15.096 9.54497 13.7431 8.21436 12.0802 8.21436H10.1072L10.106 8.21441L10.1048 8.21436C10.03 8.21436 9.95718 8.22294 9.88721 8.23919C11.0446 8.38722 11.998 9.18311 12.3578 10.2436C12.8039 10.3586 13.142 10.7411 13.142 11.1805C13.142 11.62 12.8039 12.0025 12.3577 12.1175C12.153 12.7204 11.7564 13.2376 11.2395 13.5989C10.8529 13.8692 10.7938 14.4198 11.1018 14.777L12.2684 16.1296C12.3054 16.1725 12.3387 16.2186 12.368 16.2671L13.3856 17.447C13.5787 17.671 13.8483 17.7853 14.1194 17.7853C14.3486 17.7853 14.5788 17.7035 14.7644 17.5368C15.1695 17.173 15.2089 16.543 14.8524 16.1297Z" fill="#6967BF"/>
<path d="M8.25487 0.987744V2.98471C8.25487 3.53025 7.81262 3.97246 7.26713 3.97246H3.77824L2.15823 5.17836V3.97251H0.987737C0.44225 3.97251 0 3.53025 0 2.98476V0.987795C0 0.442253 0.44225 0 0.987737 0H7.26708C7.81262 0 8.25487 0.442253 8.25487 0.987744Z" fill="#FFD54D"/>
<path d="M7.26719 0H5.17462C5.72016 0 6.16236 0.442253 6.16236 0.987744V2.98471C6.16236 3.5302 5.72011 3.97246 5.17462 3.97246H7.26714C7.81268 3.97246 8.25488 3.5302 8.25488 2.98471V0.987744C8.25493 0.442253 7.81268 0 7.26719 0Z" fill="#FFC919"/>
<path d="M23.3511 25.0119V23.0149C23.3511 22.4694 22.9089 22.0272 22.3634 22.0272H18.8745L17.2545 20.8213V22.0272H16.084C15.5385 22.0272 15.0963 22.4694 15.0963 23.0149V25.0119C15.0963 25.5574 15.5385 25.9996 16.084 25.9996H22.3633C22.9089 25.9996 23.3511 25.5574 23.3511 25.0119Z" fill="#FFD54D"/>
<path d="M22.3633 22.0273H20.2708C20.8163 22.0273 21.2585 22.4696 21.2585 23.0151V25.0121C21.2585 25.5576 20.8162 25.9998 20.2708 25.9998H22.3633C22.9088 25.9998 23.351 25.5576 23.351 25.0121V23.0151C23.351 22.4696 22.9088 22.0273 22.3633 22.0273Z" fill="#FFC919"/>
<path d="M25.9986 20.6686C25.9986 19.8595 25.3419 19.2035 24.5319 19.2035C23.9806 19.2035 23.5006 19.5075 23.2501 19.9567C22.9995 19.5075 22.5195 19.2035 21.9682 19.2035C21.1582 19.2035 20.5015 19.8594 20.5015 20.6686C20.5015 20.6686 20.3524 22.3728 23.2501 23.6829C26.1478 22.3728 25.9986 20.6686 25.9986 20.6686Z" fill="#FF8CCC"/>
<path d="M25.9985 20.6686C25.9985 19.8595 25.3419 19.2035 24.5319 19.2035C24.1222 19.2035 23.7519 19.3714 23.4858 19.642C23.7457 19.9064 23.9061 20.2688 23.9061 20.6686C23.9061 20.6686 24.0164 21.9293 22.2039 23.1155C22.4988 23.3085 22.8446 23.4995 23.2501 23.6828C26.1478 22.3728 25.9985 20.6686 25.9985 20.6686Z" fill="#FF78C2"/>
<path d="M13.6557 6.45785V2.71228H16.694V6.45785" fill="#FFD54D"/>
<path d="M22.9457 6.45755V4.77136H25.9841V6.45755" fill="#D9DDFF"/>
<path d="M18.3007 6.45708V0H21.3389V6.45708" fill="#FF8CCC"/>
<path d="M24.4648 0L24.9392 0.961186L26 1.11531L25.2324 1.86352L25.4136 2.91997L24.4648 2.42114L23.5161 2.91997L23.6973 1.86352L22.9297 1.11531L23.9905 0.961186L24.4648 0Z" fill="#FFD54D"/>
<path d="M8.87443 6.45777C10.3187 6.45777 11.4896 5.28692 11.4896 3.8426C11.4896 2.39827 10.3187 1.22742 8.87443 1.22742C7.43012 1.22742 6.25928 2.39827 6.25928 3.8426C6.25928 5.28692 7.43012 6.45777 8.87443 6.45777Z" fill="#A6F5CF"/>
<path d="M8.87459 1.22742C8.51454 1.22695 8.15829 1.30107 7.82831 1.44512C8.75181 1.84873 9.39718 2.7703 9.39718 3.8426C9.39718 4.91489 8.75181 5.83647 7.82831 6.24008C8.15829 6.38413 8.51454 6.45825 8.87459 6.45778C10.3189 6.45778 11.4898 5.28691 11.4898 3.8426C11.4898 2.39828 10.3189 1.22742 8.87459 1.22742Z" fill="#8AEDBD"/>
<path d="M9.71217 4.93959C9.61966 4.93971 9.53011 4.90697 9.45948 4.84722L8.6218 4.1409C8.57812 4.10407 8.54301 4.05815 8.51892 4.00633C8.49484 3.95452 8.48236 3.89807 8.48236 3.84094V2.44141C8.48236 2.33735 8.5237 2.23756 8.59727 2.16398C8.67085 2.09041 8.77064 2.04907 8.87469 2.04907C8.97875 2.04907 9.07854 2.09041 9.15211 2.16398C9.22569 2.23756 9.26702 2.33735 9.26702 2.44141V3.65853L9.96526 4.24729C10.2294 4.46996 10.0895 4.93959 9.71217 4.93959Z" fill="white"/>
</svg>
