<svg width="23" height="20" viewBox="0 0 23 20" fill="none" xmlns="http://www.w3.org/2000/svg">
<path d="M20.5538 10.1313C21.9001 10.1313 22.9953 9.03608 22.9953 7.68982V6.03945C22.9953 5.76331 22.7715 5.53945 22.4953 5.53945H21.1152C20.6629 5.53945 20.2391 5.66317 19.8756 5.87848C19.5762 6.0558 19.1398 5.97966 18.9809 5.67016C18.8842 5.48198 18.9141 5.25145 19.0637 5.10186L19.3832 4.78235C20.3352 3.83043 20.3352 2.28152 19.3832 1.32955L18.4074 0.353661C18.2121 0.158391 17.8955 0.158391 17.7002 0.353661L16.7244 1.32955C15.7725 2.28148 15.7725 3.83038 16.7244 4.78235L16.8507 4.90865C17.953 6.19059 18.5578 7.81733 18.5578 9.51535C18.5578 10.7625 18.2289 11.9882 17.6066 13.06C17.0498 14.019 16.2511 14.8381 15.3201 15.4432C15.1724 15.5391 15.079 15.7012 15.079 15.8773V17.5585C15.079 18.9048 16.1627 20 17.5089 20H19.1593C19.4354 20 19.6593 19.7761 19.6593 19.5V18.1199C19.6593 17.1734 19.1179 16.3511 18.3285 15.9462C17.963 15.7587 17.748 15.161 18.0081 14.843C18.2451 14.5533 18.7594 14.607 19.0055 14.8891C19.4534 15.4023 20.1119 15.7272 20.845 15.7272H22.4953C22.7715 15.7272 22.9953 15.5033 22.9953 15.2272V13.8471C22.9953 12.5008 21.9001 11.4056 20.5538 11.4056H20.3216C20.0004 11.4056 19.763 11.1067 19.8114 10.7891C19.8213 10.7241 19.8305 10.659 19.8389 10.5938C19.8723 10.3339 20.0882 10.1313 20.3503 10.1313H20.5538ZM5.36792 13.0606C4.74539 11.9887 4.41631 10.7627 4.41631 9.51526C4.41586 7.88416 4.97987 6.30316 6.0126 5.04065L6.27099 4.78226C7.22291 3.83034 7.22291 2.28143 6.27099 1.32946L5.29513 0.353571C5.09986 0.158301 4.78327 0.158301 4.58801 0.353571L3.61215 1.32946C2.66018 2.28139 2.66018 3.83029 3.61215 4.78226L3.9167 5.08681C4.06726 5.23737 4.09724 5.46946 3.99975 5.65876C3.84056 5.96791 3.40617 6.04497 3.10576 5.86987C2.74533 5.65979 2.32652 5.53936 1.88009 5.53936H0.5C0.223857 5.53936 0 5.76322 0 6.03936V7.68973C0 9.03599 1.09524 10.1312 2.4415 10.1312H2.62375C2.88578 10.1312 3.10175 10.3338 3.13516 10.5937C3.14354 10.6589 3.15269 10.7241 3.16259 10.7891C3.21098 11.1067 2.97368 11.4055 2.65241 11.4055H2.4415C1.09524 11.4055 0 12.5008 0 13.847V15.2271C0 15.5033 0.223858 15.7271 0.5 15.7271H2.15033C2.88218 15.7271 3.5398 15.4035 3.98764 14.8917C4.23108 14.6136 4.73565 14.562 4.96992 14.8479C5.22882 15.1639 5.01508 15.7577 4.65114 15.9432C3.85873 16.3471 3.31478 17.1711 3.31478 18.1199V19.5C3.31478 19.7761 3.53864 20 3.81478 20H5.46516C6.81142 20 7.88995 18.9047 7.88995 17.5585V15.8782C7.88995 15.702 7.7965 15.54 7.64881 15.4439C6.71838 14.8389 5.925 14.0198 5.36792 13.0606Z" fill="url(#paint0_linear_1215_1592)"/>
<path d="M16.9365 9.45565C16.9365 6.4509 14.492 4.00635 11.4873 4.00635C8.48252 4.00635 6.03796 6.4509 6.03796 9.45565C6.03796 12.4604 8.48252 14.905 11.4873 14.905C14.492 14.905 16.9365 12.4604 16.9365 9.45565ZM11.1544 11.4924C10.9591 11.6876 10.6425 11.6876 10.4473 11.4924L9.07712 10.1222C8.88186 9.92694 8.88186 9.61036 9.07712 9.4151L9.32275 9.16947C9.51801 8.97421 9.83459 8.97421 10.0299 9.16947L10.4473 9.58689C10.6425 9.78215 10.9591 9.78216 11.1544 9.5869L13.1668 7.57452C13.362 7.37926 13.6786 7.37927 13.8739 7.57453L14.1195 7.82015C14.3148 8.01542 14.3148 8.332 14.1195 8.52726L11.1544 11.4924Z" fill="url(#paint1_linear_1215_1592)"/>
<defs>
<linearGradient id="paint0_linear_1215_1592" x1="11.4977" y1="0" x2="11.4977" y2="20" gradientUnits="userSpaceOnUse">
<stop stop-color="#FFBA0D"/>
<stop offset="1" stop-color="#FFD66F"/>
</linearGradient>
<linearGradient id="paint1_linear_1215_1592" x1="11.4872" y1="4.00635" x2="11.4872" y2="14.905" gradientUnits="userSpaceOnUse">
<stop stop-color="#FFBA0D"/>
<stop offset="1" stop-color="#FFD66F"/>
</linearGradient>
</defs>
</svg>
