<svg width="10" height="10" viewBox="0 0 10 10" fill="none" xmlns="http://www.w3.org/2000/svg">
<path d="M7.7986 9.58125H1.02763C0.179966 7.42713 1.81377 5.1191 1.8749 1.96594L7.79957 4.78824L7.7986 9.58125Z" fill="#352120"/>
<path d="M5.76663 9.44071H3.35938C3.40078 9.01844 3.46328 8.38738 3.52578 7.75104C3.59141 7.08248 3.65782 6.40806 3.70157 5.96411H5.66057C5.66819 6.2104 5.6801 6.63189 5.69553 7.10514C5.72131 7.95749 5.75256 8.97781 5.76663 9.44071Z" fill="#FEB4A9"/>
<path d="M8.8514 9.99975H0.190765C0.19083 9.60923 0.318503 9.22943 0.554347 8.91817C0.790191 8.60691 1.12129 8.38124 1.49722 8.27552L3.27849 7.81575L3.52537 7.75208C3.37048 9.06068 3.45896 9.2392 4.20233 9.26518C5.24121 9.26518 5.67988 8.70365 5.71523 7.75208L5.85938 7.7927L7.54338 8.27513C7.91965 8.38061 8.25113 8.60622 8.48727 8.91758C8.72342 9.22894 8.85129 9.60897 8.8514 9.99975Z" fill="#FCF4E8"/>
<path d="M5.69555 7.10514C5.1682 7.53991 4.52034 7.80007 3.89338 7.80007C3.76917 7.79994 3.64551 7.78345 3.5256 7.75104C3.59123 7.08248 3.65764 6.40806 3.70139 5.96411H5.66059C5.6682 6.2106 5.6809 6.63189 5.69555 7.10514Z" fill="#F47D71"/>
<path d="M6.84553 4.10582C6.84553 5.78864 5.31642 7.12987 3.89355 7.12987C2.7826 7.12987 1.81384 5.80173 1.81384 4.11949C1.81384 2.43724 2.84588 1.2052 4.26895 1.2052C5.69201 1.2052 6.84553 2.42299 6.84553 4.10582Z" fill="#FEB4A9"/>
<path d="M2.82014 4.18463C2.94829 4.18463 3.05217 4.02661 3.05217 3.83169C3.05217 3.63677 2.94829 3.47876 2.82014 3.47876C2.69199 3.47876 2.5881 3.63677 2.5881 3.83169C2.5881 4.02661 2.69199 4.18463 2.82014 4.18463Z" fill="#352120"/>
<path d="M4.7949 4.18463C4.92305 4.18463 5.02693 4.02661 5.02693 3.83169C5.02693 3.63677 4.92305 3.47876 4.7949 3.47876C4.66675 3.47876 4.56287 3.63677 4.56287 3.83169C4.56287 4.02661 4.66675 4.18463 4.7949 4.18463Z" fill="#352120"/>
<path d="M9.14071 10H6.14928V7.79297L7.83328 8.2754C8.20945 8.38098 8.54079 8.60664 8.77682 8.91799C9.01286 9.22934 9.14064 9.60932 9.14071 10ZM3.08773 7.81504L2.79983 10H0C6.44096e-05 9.6095 0.127737 9.2297 0.363581 8.91844C0.599425 8.60718 0.93052 8.38151 1.30646 8.27579L3.08773 7.81504Z" fill="url(#paint0_linear_1185_3043)"/>
<path d="M5.42233 1.91287C5.42233 1.91287 5.35847 4.31641 6.93036 4.31992C7.53759 6.88245 6.29734 8.86118 6.29734 8.86118C6.29734 8.86118 7.54931 9.27974 8.63369 8.86118C8.63369 8.86118 8.05341 4.74004 7.89384 2.95057C7.74306 1.2613 7.11883 0.513244 5.66999 0.289805C3.43013 -0.0557065 2.82016 1.36716 2.82016 1.36716L5.42233 1.91287Z" fill="#543838"/>
<path d="M7.5842 4.07767C7.5842 4.5601 7.2047 4.9933 6.79689 4.9933C6.38907 4.9933 6.10684 4.5601 6.10684 4.07767C6.10684 3.59524 6.43751 3.24622 6.84552 3.24622C7.25353 3.24622 7.5842 3.59524 7.5842 4.07767Z" fill="#FEB4A9"/>
<path d="M3.54179 7.58521C3.49238 8.26451 5.41232 8.18912 5.70978 7.58521L5.76642 7.76587V9.35534H3.29355L3.54179 7.58521Z" fill="#FCF4E8"/>
<path d="M6.85169 5.10921C6.94964 5.10921 7.02904 5.02981 7.02904 4.93186C7.02904 4.83392 6.94964 4.75452 6.85169 4.75452C6.75375 4.75452 6.67435 4.83392 6.67435 4.93186C6.67435 5.02981 6.75375 5.10921 6.85169 5.10921Z" fill="white"/>
<path d="M5.66992 0.289556C5.66992 0.289556 4.78104 -0.140136 2.91598 0.0473663C1.05093 0.234868 0.730415 2.58743 1.8775 3.01322C1.88257 2.60306 1.86109 2.27551 2.0023 1.97336C2.0023 1.97336 2.08043 2.89446 3.3695 2.69603C3.24255 2.35618 3.20466 2.04114 3.45075 1.80637C3.45075 1.80637 3.48982 2.80247 4.82577 2.75462C4.71952 2.39915 4.71913 2.10305 4.84823 1.87961C4.88378 2.26672 5.40234 2.81946 6.10449 3.43529L5.66992 0.289556Z" fill="#543838"/>
<defs>
<linearGradient id="paint0_linear_1185_3043" x1="4.49992" y1="8.12512" x2="4.49992" y2="10.0001" gradientUnits="userSpaceOnUse">
<stop stop-color="#9574CD"/>
<stop offset="1" stop-color="#8059C3"/>
</linearGradient>
</defs>
</svg>
