<svg width="153" height="42" viewBox="0 0 153 42" fill="none" xmlns="http://www.w3.org/2000/svg">
<path d="M2.70957 13.1287L0.219371 5.65811C0.111449 5.33435 0.352432 5 0.693711 5H30.1176C37.6471 5 44.2353 9.70588 44.2353 21C44.2353 32.2941 34.8235 36.3725 30.1176 37H15.7973C15.4436 37 15.2017 36.6427 15.3331 36.3143L18.6978 27.9025C18.7737 27.7127 18.9576 27.5882 19.162 27.5882H28.1998C28.2234 27.5882 28.2463 27.5898 28.2697 27.593C30.4769 27.8927 34.8235 26.9922 34.8235 21C34.8235 14.9765 30.4314 13.4706 28.2353 13.4706H3.18391C2.96869 13.4706 2.77762 13.3329 2.70957 13.1287Z" fill="url(#paint0_linear_1135_842)"/>
<path d="M7.84177 26.8852L11.162 19.4146C11.2423 19.234 11.4213 19.1176 11.6189 19.1176H20.8278C21.202 19.1176 21.4436 19.5134 21.2726 19.8462L17.4335 27.3168C17.3479 27.4834 17.1762 27.5882 16.9888 27.5882H8.29868C7.93685 27.5882 7.69482 27.2158 7.84177 26.8852Z" fill="url(#paint1_linear_1135_842)"/>
<path d="M53.7034 30.42C52.0607 30.42 50.7167 30.0093 49.6714 29.188C48.6447 28.348 48.1314 27.2093 48.1314 25.772C48.1314 24.2787 48.626 23.1213 49.6154 22.3C50.6047 21.46 52.0047 21.04 53.8154 21.04C54.618 21.04 55.3834 21.124 56.1114 21.292C56.8394 21.46 57.4834 21.6933 58.0434 21.992V21.656C58.0434 20.816 57.7447 20.2 57.1474 19.808C56.55 19.416 55.6354 19.22 54.4034 19.22C52.7607 19.22 51.2487 19.528 49.8674 20.144V17.064C50.4647 16.8027 51.2394 16.588 52.1914 16.42C53.1434 16.2333 54.0954 16.14 55.0474 16.14C57.474 16.14 59.2847 16.644 60.4794 17.652C61.674 18.6413 62.2714 20.032 62.2714 21.824V30H58.2954V28.768C57.1567 29.8693 55.626 30.42 53.7034 30.42ZM54.8514 27.62C55.542 27.62 56.1674 27.4893 56.7274 27.228C57.2874 26.9667 57.726 26.6027 58.0434 26.136V24.792C57.0914 24.1573 56.046 23.84 54.9074 23.84C54.1234 23.84 53.5167 24.008 53.0874 24.344C52.6767 24.6613 52.4714 25.1373 52.4714 25.772C52.4714 26.3693 52.6767 26.8267 53.0874 27.144C53.498 27.4613 54.086 27.62 54.8514 27.62ZM70.5473 30.42C68.9793 30.42 67.7847 29.9907 66.9633 29.132C66.1607 28.2547 65.7593 27.0413 65.7593 25.492V19.612H63.7993V16.56H65.7593V12.528H69.9873V16.56H73.1513V19.612H69.9873V24.932C69.9873 25.716 70.1367 26.2853 70.4353 26.64C70.734 26.976 71.266 27.144 72.0313 27.144C72.6473 27.144 73.2353 26.9947 73.7953 26.696V29.86C72.9367 30.2333 71.854 30.42 70.5473 30.42ZM80.9093 30.42C79.2666 30.42 77.9226 30.0093 76.8773 29.188C75.8506 28.348 75.3373 27.2093 75.3373 25.772C75.3373 24.2787 75.832 23.1213 76.8213 22.3C77.8106 21.46 79.2106 21.04 81.0213 21.04C81.824 21.04 82.5893 21.124 83.3173 21.292C84.0453 21.46 84.6893 21.6933 85.2493 21.992V21.656C85.2493 20.816 84.9506 20.2 84.3533 19.808C83.756 19.416 82.8413 19.22 81.6093 19.22C79.9666 19.22 78.4546 19.528 77.0733 20.144V17.064C77.6706 16.8027 78.4453 16.588 79.3973 16.42C80.3493 16.2333 81.3013 16.14 82.2533 16.14C84.68 16.14 86.4906 16.644 87.6853 17.652C88.88 18.6413 89.4773 20.032 89.4773 21.824V30H85.5013V28.768C84.3626 29.8693 82.832 30.42 80.9093 30.42ZM82.0573 27.62C82.748 27.62 83.3733 27.4893 83.9333 27.228C84.4933 26.9667 84.932 26.6027 85.2493 26.136V24.792C84.2973 24.1573 83.252 23.84 82.1133 23.84C81.3293 23.84 80.7226 24.008 80.2933 24.344C79.8826 24.6613 79.6773 25.1373 79.6773 25.772C79.6773 26.3693 79.8826 26.8267 80.2933 27.144C80.704 27.4613 81.292 27.62 82.0573 27.62ZM101.964 30.42C100.919 30.42 99.9855 30.2707 99.1642 29.972C98.3615 29.6733 97.6149 29.1973 96.9242 28.544V30H92.8362V9.308H97.0642V17.764C97.6615 17.2413 98.3895 16.84 99.2482 16.56C100.107 16.28 101.012 16.14 101.964 16.14C103.364 16.14 104.596 16.448 105.66 17.064C106.743 17.6613 107.583 18.5013 108.18 19.584C108.778 20.6667 109.076 21.908 109.076 23.308C109.076 24.7267 108.778 25.9773 108.18 27.06C107.583 28.124 106.743 28.9547 105.66 29.552C104.596 30.1307 103.364 30.42 101.964 30.42ZM100.9 27.144C102.039 27.144 102.963 26.7987 103.672 26.108C104.4 25.3987 104.764 24.4653 104.764 23.308C104.764 22.1507 104.4 21.2173 103.672 20.508C102.963 19.7987 102.039 19.444 100.9 19.444C100.023 19.444 99.2295 19.6867 98.5202 20.172C97.8295 20.6387 97.3442 21.2547 97.0642 22.02V24.568C97.3629 25.352 97.8575 25.9773 98.5482 26.444C99.2389 26.9107 100.023 27.144 100.9 27.144ZM114.341 14.488C113.688 14.488 113.137 14.2733 112.689 13.844C112.241 13.4147 112.017 12.8733 112.017 12.22C112.017 11.5853 112.241 11.0533 112.689 10.624C113.137 10.176 113.688 9.952 114.341 9.952C114.995 9.952 115.545 10.176 115.993 10.624C116.441 11.0533 116.665 11.5853 116.665 12.22C116.665 12.8733 116.441 13.4147 115.993 13.844C115.545 14.2733 114.995 14.488 114.341 14.488ZM112.213 16.56H116.469V30H112.213V16.56ZM131.576 28.796C130.998 29.3187 130.279 29.72 129.42 30C128.562 30.28 127.647 30.42 126.676 30.42C125.295 30.42 124.063 30.1213 122.98 29.524C121.898 28.908 121.058 28.0587 120.46 26.976C119.863 25.8933 119.564 24.652 119.564 23.252C119.564 21.8333 119.863 20.592 120.46 19.528C121.076 18.4453 121.916 17.6147 122.98 17.036C124.063 16.4387 125.295 16.14 126.676 16.14C128.674 16.14 130.354 16.7747 131.716 18.044V16.56H135.804V36.132H131.576V28.796ZM127.768 27.116C128.646 27.116 129.43 26.8827 130.12 26.416C130.83 25.9493 131.315 25.324 131.576 24.54V21.992C131.278 21.208 130.783 20.592 130.092 20.144C129.42 19.6773 128.646 19.444 127.768 19.444C126.63 19.444 125.696 19.7893 124.968 20.48C124.259 21.1707 123.904 22.0947 123.904 23.252C123.904 24.4093 124.259 25.3427 124.968 26.052C125.696 26.7613 126.63 27.116 127.768 27.116ZM144.821 30.42C143.813 30.42 142.731 30.308 141.573 30.084C140.435 29.8787 139.539 29.58 138.885 29.188V25.884C139.632 26.332 140.528 26.696 141.573 26.976C142.619 27.256 143.589 27.396 144.485 27.396C145.251 27.396 145.811 27.3307 146.165 27.2C146.52 27.0693 146.697 26.8267 146.697 26.472C146.697 26.192 146.595 25.968 146.389 25.8C146.184 25.6133 145.867 25.4547 145.437 25.324C145.027 25.1747 144.336 24.96 143.365 24.68C142.227 24.344 141.331 24.008 140.677 23.672C140.043 23.3173 139.557 22.8787 139.221 22.356C138.904 21.8333 138.745 21.1613 138.745 20.34C138.745 18.94 139.296 17.8947 140.397 17.204C141.517 16.4947 143.029 16.14 144.933 16.14C145.867 16.14 146.828 16.2427 147.817 16.448C148.825 16.6347 149.6 16.8867 150.141 17.204V20.424C149.6 20.0693 148.891 19.78 148.013 19.556C147.155 19.332 146.315 19.22 145.493 19.22C144.728 19.22 144.131 19.2947 143.701 19.444C143.291 19.5933 143.085 19.8733 143.085 20.284C143.085 20.6387 143.281 20.9093 143.673 21.096C144.084 21.2827 144.84 21.516 145.941 21.796L146.501 21.936C147.677 22.2533 148.592 22.608 149.245 23C149.899 23.3733 150.356 23.8307 150.617 24.372C150.897 24.8947 151.037 25.5573 151.037 26.36C151.037 27.592 150.505 28.5813 149.441 29.328C148.377 30.056 146.837 30.42 144.821 30.42Z" fill="black"/>
<defs>
<linearGradient id="paint0_linear_1135_842" x1="1.8591" y1="13.5359" x2="33.1784" y2="38.2161" gradientUnits="userSpaceOnUse">
<stop stop-color="#002E9E"/>
<stop offset="1" stop-color="#002E9E"/>
</linearGradient>
<linearGradient id="paint1_linear_1135_842" x1="8.12263" y1="21.3772" x2="16.6383" y2="29.4678" gradientUnits="userSpaceOnUse">
<stop stop-color="#002E9E"/>
<stop offset="1" stop-color="#002E9E"/>
</linearGradient>
</defs>
</svg>
