<svg width="15" height="15" viewBox="0 0 15 15" fill="none" xmlns="http://www.w3.org/2000/svg">
<path d="M11.2497 0H3.74991C1.68764 0 0 1.68764 0 3.74991V11.2501C0 13.3118 1.68764 15 3.74991 15H11.2497C13.312 15 14.9996 13.3118 14.9996 11.2501V3.74991C14.9996 1.68764 13.312 0 11.2497 0ZM13.7496 11.2501C13.7496 12.6282 12.6286 13.75 11.2497 13.75H3.74991C2.37163 13.75 1.25003 12.6282 1.25003 11.2501V3.74991C1.25003 2.37145 2.37163 1.25003 3.74991 1.25003H11.2497C12.6286 1.25003 13.7496 2.37145 13.7496 3.74991V11.2501Z" fill="white" fill-opacity="0.6"/>
<path d="M11.5628 4.37544C12.0806 4.37544 12.5003 3.95572 12.5003 3.43797C12.5003 2.92021 12.0806 2.50049 11.5628 2.50049C11.0451 2.50049 10.6254 2.92021 10.6254 3.43797C10.6254 3.95572 11.0451 4.37544 11.5628 4.37544Z" fill="white" fill-opacity="0.6"/>
<path d="M7.49991 3.75C5.42845 3.75 3.75 5.42863 3.75 7.49991C3.75 9.57042 5.42845 11.2502 7.49991 11.2502C9.57078 11.2502 11.2498 9.57042 11.2498 7.49991C11.2498 5.42863 9.57078 3.75 7.49991 3.75ZM7.49991 10.0002C6.11936 10.0002 5.00003 8.88082 5.00003 7.49991C5.00003 6.119 6.11936 5.00003 7.49991 5.00003C8.88045 5.00003 9.99979 6.119 9.99979 7.49991C9.99979 8.88082 8.88045 10.0002 7.49991 10.0002Z" fill="white" fill-opacity="0.6"/>
</svg>
