<svg width="13" height="11" viewBox="0 0 13 11" fill="none" xmlns="http://www.w3.org/2000/svg">
<path d="M12.0781 4.78297L7.7372 0.441932C7.61328 0.318017 7.44813 0.25 7.27203 0.25C7.09573 0.25 6.93068 0.318114 6.80676 0.441932L6.41264 0.836154C6.28882 0.959874 6.22061 1.12513 6.22061 1.30133C6.22061 1.47743 6.28882 1.64825 6.41264 1.77197L8.94508 4.30998H0.899383C0.536627 4.30998 0.25 4.59397 0.25 4.95683V5.51415C0.25 5.877 0.536627 6.18963 0.899383 6.18963H8.97381L6.41273 8.74181C6.28892 8.86573 6.2207 9.02648 6.2207 9.20268C6.2207 9.37868 6.28892 9.54179 6.41273 9.6656L6.80686 10.0586C6.93077 10.1825 7.09583 10.25 7.27213 10.25C7.44823 10.25 7.61338 10.1816 7.7373 10.0577L12.0782 5.71673C12.2025 5.59243 12.2708 5.42649 12.2703 5.2501C12.2707 5.07312 12.2025 4.90708 12.0781 4.78297Z" fill="#323232" stroke="white" stroke-width="0.5"/>
</svg>
