<svg width="20" height="21" viewBox="0 0 20 21" fill="none" xmlns="http://www.w3.org/2000/svg">
<path d="M5.79678 13.7483C6.11482 13.8754 6.13451 14.2906 5.89678 14.5372C5.53502 14.9124 5.2333 15.343 5.00374 15.8142C4.67194 16.4951 4.49962 17.2426 4.49985 18.0001V19.0001C4.49985 19.2762 4.27599 19.5001 3.99985 19.5001H1.49995C0.669977 19.5001 0 18.8301 0 18.0001V17.0001C0 15.0652 1.56495 13.5002 3.49988 13.5002H4.49985C4.95977 13.5002 5.39661 13.5884 5.79678 13.7483Z" fill="url(#paint0_linear_1215_1582)"/>
<path d="M15.9994 13.5004C17.242 13.5004 18.2494 12.493 18.2494 11.2504C18.2494 10.0078 17.242 9.00049 15.9994 9.00049C14.7568 9.00049 13.7495 10.0078 13.7495 11.2504C13.7495 12.493 14.7568 13.5004 15.9994 13.5004Z" fill="url(#paint1_linear_1215_1582)"/>
<path d="M3.99962 13.5004C5.24222 13.5004 6.24954 12.493 6.24954 11.2504C6.24954 10.0078 5.24222 9.00049 3.99962 9.00049C2.75702 9.00049 1.74969 10.0078 1.74969 11.2504C1.74969 12.493 2.75702 13.5004 3.99962 13.5004Z" fill="url(#paint2_linear_1215_1582)"/>
<path d="M19.9993 17.0001V18.0001C19.9993 18.8301 19.3293 19.5001 18.4994 19.5001H15.9995C15.7233 19.5001 15.4995 19.2762 15.4995 19.0001V18.0001C15.4995 16.6554 14.9663 15.435 14.1008 14.5368C13.8635 14.2905 13.8835 13.876 14.2011 13.7489C14.6017 13.5886 15.039 13.5002 15.4995 13.5002H16.4994C18.4344 13.5002 19.9993 15.0652 19.9993 17.0001Z" fill="url(#paint3_linear_1215_1582)"/>
<path d="M9.99991 14.0001C11.5186 14.0001 12.7498 12.7689 12.7498 11.2502C12.7498 9.73143 11.5186 8.50024 9.99991 8.50024C8.48118 8.50024 7.25 9.73143 7.25 11.2502C7.25 12.7689 8.48118 14.0001 9.99991 14.0001Z" fill="url(#paint4_linear_1215_1582)"/>
<path d="M10.4998 14.0002H9.4998C7.29437 14.0002 5.49993 15.7947 5.49993 18.0001V19.5C5.49993 20.327 6.17291 21 6.99988 21H12.9997C13.8266 21 14.4996 20.327 14.4996 19.5V18.0001C14.4996 15.7947 12.7052 14.0002 10.4998 14.0002ZM17.417 6.90198C17.3087 6.86345 17.1904 6.86345 17.082 6.90198L16.0431 7.2714C15.9639 7.29954 15.8791 7.30797 15.796 7.29596C15.7128 7.28396 15.6339 7.25187 15.5659 7.20248C15.498 7.1531 15.4431 7.0879 15.406 7.01253C15.3689 6.93715 15.3508 6.85388 15.3531 6.76991L15.3832 5.66765C15.3864 5.55271 15.3498 5.4402 15.2797 5.34907L14.6071 4.47498C14.556 4.40838 14.5218 4.33032 14.5075 4.24755C14.4933 4.16477 14.4994 4.07978 14.5253 3.99989C14.5512 3.92001 14.5962 3.84764 14.6564 3.78903C14.7166 3.73042 14.7901 3.68734 14.8706 3.6635L15.9285 3.35178C16.0388 3.31927 16.1346 3.2497 16.1996 3.15481L16.823 2.24504C16.8705 2.17575 16.9342 2.11906 17.0085 2.0799C17.0828 2.04073 17.1655 2.02026 17.2495 2.02026C17.3335 2.02026 17.4163 2.04073 17.4906 2.0799C17.5649 2.11906 17.6285 2.17575 17.676 2.24504L18.2995 3.15481C18.3645 3.2497 18.4602 3.31927 18.5706 3.35178L19.6285 3.6635C19.9769 3.766 20.1134 4.18699 19.8919 4.47498L19.2194 5.34907C19.1493 5.4402 19.1127 5.55271 19.1158 5.66765L19.146 6.76991C19.1482 6.85384 19.1299 6.93705 19.0928 7.01236C19.0557 7.08767 19.0008 7.15281 18.9329 7.20217C18.865 7.25154 18.7861 7.28363 18.703 7.29569C18.6199 7.30775 18.5351 7.29941 18.456 7.2714L17.417 6.90198ZM2.91754 6.90197C2.80918 6.86345 2.69086 6.86345 2.58251 6.90198L1.54356 7.2714C1.46442 7.29954 1.37961 7.30797 1.29647 7.29596C1.21333 7.28396 1.13437 7.25187 1.06642 7.20248C0.998473 7.1531 0.943581 7.0879 0.906496 7.01253C0.869412 6.93715 0.851252 6.85388 0.853587 6.76991L0.883727 5.66765C0.88687 5.55271 0.850302 5.4402 0.780183 5.34907L0.107613 4.47498C0.056443 4.40838 0.0222538 4.33032 0.00799747 4.24755C-0.0062589 4.16477 -0.000153979 4.07978 0.025785 3.99989C0.0517241 3.92001 0.0967174 3.84764 0.15688 3.78903C0.217043 3.73042 0.290567 3.68734 0.371104 3.6635L1.42897 3.35178C1.53931 3.31927 1.63507 3.2497 1.70009 3.15481L2.32354 2.24504C2.37102 2.17575 2.43466 2.11906 2.50898 2.0799C2.58329 2.04073 2.66602 2.02026 2.75002 2.02026C2.83402 2.02026 2.91676 2.04073 2.99107 2.0799C3.06538 2.11906 3.12903 2.17575 3.17651 2.24504L3.79995 3.15481C3.86498 3.2497 3.96073 3.31927 4.07107 3.35178L5.12894 3.6635C5.47743 3.766 5.61393 4.18699 5.39243 4.47498L4.71986 5.34907C4.64974 5.4402 4.61318 5.55271 4.61632 5.66765L4.64646 6.76991C4.64868 6.85384 4.63044 6.93705 4.59332 7.01236C4.5562 7.08767 4.50131 7.15281 4.4334 7.20217C4.36548 7.25154 4.28658 7.28363 4.20349 7.29569C4.1204 7.30775 4.03563 7.29941 3.95648 7.2714L2.91754 6.90197ZM10.1672 5.77695C10.0589 5.73846 9.94065 5.73846 9.83234 5.77696L8.56933 6.22593C8.4755 6.25927 8.37497 6.26924 8.27642 6.255C8.17787 6.24076 8.08427 6.20272 8.00373 6.14418C7.92318 6.08564 7.85811 6.00836 7.81413 5.91902C7.77016 5.82969 7.74861 5.73098 7.75136 5.63145L7.78799 4.29168C7.79114 4.17674 7.75457 4.06424 7.68446 3.97311L6.86688 2.91053C6.80623 2.83156 6.76571 2.73902 6.74882 2.64089C6.73194 2.54276 6.73918 2.44199 6.76995 2.34729C6.80071 2.25259 6.85406 2.16681 6.92539 2.09733C6.99672 2.02786 7.08389 1.9768 7.17937 1.94855L8.46533 1.56934C8.57561 1.53682 8.67132 1.46728 8.73632 1.37244L9.4943 0.266602C9.55059 0.184415 9.62606 0.117185 9.71418 0.0707314C9.8023 0.0242776 9.90041 0 10 0C10.0996 0 10.1978 0.0242776 10.2859 0.0707314C10.374 0.117185 10.4495 0.184415 10.5058 0.266602L11.2637 1.37244C11.3287 1.46728 11.4244 1.53682 11.5347 1.56934L12.8207 1.94855C12.9162 1.9768 13.0033 2.02786 13.0747 2.09733C13.146 2.16681 13.1993 2.25259 13.2301 2.34729C13.2609 2.44199 13.2681 2.54276 13.2512 2.64089C13.2343 2.73902 13.1938 2.83156 13.1332 2.91053L12.3156 3.97311C12.2455 4.06424 12.2089 4.17674 12.2121 4.29168L12.2487 5.63145C12.2514 5.73098 12.2299 5.82969 12.1859 5.91902C12.142 6.00836 12.0769 6.08564 11.9963 6.14418C11.9158 6.20272 11.8222 6.24076 11.7236 6.255C11.6251 6.26924 11.5246 6.25927 11.4307 6.22593L10.1672 5.77695Z" fill="url(#paint5_linear_1215_1582)"/>
<defs>
<linearGradient id="paint0_linear_1215_1582" x1="3.20739" y1="13.5002" x2="3.20739" y2="19.5001" gradientUnits="userSpaceOnUse">
<stop stop-color="#FFBA0D"/>
<stop offset="1" stop-color="#FFD66F"/>
</linearGradient>
<linearGradient id="paint1_linear_1215_1582" x1="15.9994" y1="9.00049" x2="15.9994" y2="13.5004" gradientUnits="userSpaceOnUse">
<stop stop-color="#FFBA0D"/>
<stop offset="1" stop-color="#FFD66F"/>
</linearGradient>
<linearGradient id="paint2_linear_1215_1582" x1="3.99962" y1="9.00049" x2="3.99962" y2="13.5004" gradientUnits="userSpaceOnUse">
<stop stop-color="#FFBA0D"/>
<stop offset="1" stop-color="#FFD66F"/>
</linearGradient>
<linearGradient id="paint3_linear_1215_1582" x1="16.7919" y1="13.5002" x2="16.7919" y2="19.5001" gradientUnits="userSpaceOnUse">
<stop stop-color="#FFBA0D"/>
<stop offset="1" stop-color="#FFD66F"/>
</linearGradient>
<linearGradient id="paint4_linear_1215_1582" x1="9.99991" y1="8.50024" x2="9.99991" y2="14.0001" gradientUnits="userSpaceOnUse">
<stop stop-color="#FFBA0D"/>
<stop offset="1" stop-color="#FFD66F"/>
</linearGradient>
<linearGradient id="paint5_linear_1215_1582" x1="10" y1="0" x2="10" y2="21" gradientUnits="userSpaceOnUse">
<stop stop-color="#FFBA0D"/>
<stop offset="1" stop-color="#FFD66F"/>
</linearGradient>
</defs>
</svg>
