<svg width="23" height="41" viewBox="0 0 23 41" fill="none" xmlns="http://www.w3.org/2000/svg">
<path d="M11.1775 0C5.01414 0 0 5.28026 0 11.7707V28.2461C0 34.7365 5.01414 40.0168 11.1775 40.0168C17.3408 40.0168 22.3549 34.7365 22.3549 28.2461V11.7707C22.3549 5.28026 17.3408 0 11.1775 0ZM20.075 28.2461C20.075 33.4124 16.0835 37.6158 11.1775 37.6158C6.27148 37.6158 2.27993 33.4124 2.27993 28.2461V11.7707C2.27993 6.60433 6.27148 2.40093 11.1775 2.40093C16.0834 2.40093 20.075 6.60433 20.075 11.7707V28.2461Z" fill="#8F869B"/>
<path d="M11.1777 7.96053C10.548 7.96053 10.0378 8.49786 10.0378 9.16095V14.6863C10.0378 15.3491 10.548 15.8868 11.1778 15.8868C11.8072 15.8868 12.3177 15.3491 12.3177 14.6863V9.16095C12.3177 8.49786 11.8075 7.96053 11.1777 7.96053Z" fill="#8F869B"/>
</svg>
