<svg width="13" height="12" viewBox="0 0 13 12" fill="none" xmlns="http://www.w3.org/2000/svg">
<path d="M11.1198 10.8935L9.65199 11.8979C9.40349 12.0679 9.06097 12.01 8.88869 11.7665C8.18901 10.7778 7.37384 9.5231 6.44468 7.9705C5.60584 9.56271 4.84267 10.8203 4.15641 11.775C3.98344 12.0159 3.64256 12.0714 3.39556 11.9024L1.91028 10.8863C1.65165 10.7092 1.6017 10.3545 1.79943 10.1142C3.14678 8.47821 4.14669 7.42425 4.75797 6.87387C3.22985 6.5682 1.78 6.26067 0.408433 5.91926C0.103822 5.84351 -0.0696938 5.53118 0.0266432 5.23952L0.596318 3.51275C0.691286 3.22469 1.01423 3.07225 1.30598 3.17561C3.17456 3.83762 4.53478 4.3796 5.42302 4.88237C5.21365 2.92089 5.07215 1.49752 5.02795 0.553851C5.01386 0.251387 5.26373 0 5.5745 0H7.35304C7.66655 0 7.91683 0.254988 7.89945 0.560119C7.83103 1.75704 7.68625 3.20828 7.46635 4.88237C8.70942 4.25451 10.1164 3.70652 11.6912 3.16641C11.9808 3.06705 12.2981 3.22175 12.3921 3.50661L12.9736 5.26859C13.0661 5.54932 12.9082 5.85365 12.6191 5.94073C11.107 6.39683 9.5989 6.69476 8.1314 6.87387C8.87651 7.51 9.92048 8.60157 11.2229 10.1128C11.4293 10.3523 11.3825 10.7137 11.1198 10.8935Z" fill="#002E9E"/>
</svg>
