<svg width="21" height="21" viewBox="0 0 21 21" fill="none" xmlns="http://www.w3.org/2000/svg">
<path d="M2.82298 14.1604C2.63222 13.908 2.25996 13.8698 2.03624 14.0935L0.0232143 16.1066C-0.0179249 16.1458 -0.00254385 16.2167 0.0547968 16.2337L3.00091 17.1286C3.20645 17.191 3.39345 17.3031 3.54533 17.455C3.69721 17.6068 3.80929 17.7938 3.87164 17.9994L4.76657 20.9455C4.78355 21.0028 4.85451 21.0182 4.89372 20.9771L7.54119 18.3296C7.81625 18.0545 7.68641 17.5796 7.31928 17.4511C5.48263 16.808 3.93397 15.6305 2.82298 14.1604ZM20.9771 16.1066L18.964 14.0935C18.7403 13.8698 18.3681 13.908 18.1773 14.1604C17.0722 15.6224 15.5266 16.805 13.6809 17.4511C13.3138 17.5796 13.184 18.0546 13.459 18.3296L16.1065 20.9771C16.1457 21.0182 16.2167 21.0029 16.2336 20.9455L17.1286 17.9994C17.1909 17.7939 17.303 17.6069 17.4549 17.455C17.6068 17.3031 17.7938 17.191 17.9993 17.1287L20.9454 16.2338C21.003 16.2166 21.0181 16.1456 20.9771 16.1066Z" fill="url(#paint0_linear_1215_1575)"/>
<path d="M18.8784 8.37816C18.8784 3.75864 15.1202 0 10.5003 0C5.88033 0 2.1221 3.75864 2.1221 8.37816C2.1221 12.555 5.19745 16.0363 9.21282 16.6579C14.2991 17.4491 18.8784 13.4901 18.8784 8.37816ZM3.96943 10.4199C2.58772 6.00242 5.91388 1.53683 10.5003 1.53683C15.6237 1.53683 19.0101 7.04321 16.5127 11.6417C13.6295 16.9308 5.78407 16.1919 3.96943 10.4199Z" fill="url(#paint1_linear_1215_1575)"/>
<path d="M10.5001 2.76709C7.40633 2.76709 4.88879 5.28421 4.88879 8.37797C4.88879 12.9296 10.0493 15.584 13.7448 12.9532C14.5366 12.3912 15.1814 11.6229 15.5962 10.7252C17.3202 7.01386 14.572 2.76709 10.5001 2.76709ZM13.3322 7.59091L9.83358 10.1876C9.58736 10.3711 9.23708 10.3465 9.01818 10.1146C7.45231 8.44581 7.57757 8.57907 7.54 8.53962C7.27697 8.25954 7.33176 7.80658 7.66064 7.59815C7.66087 7.598 7.66113 7.59778 7.66134 7.59759C7.66186 7.59711 7.66255 7.5969 7.66316 7.59653C7.90751 7.4438 8.23302 7.47967 8.43743 7.6976C8.7292 8.00856 8.59083 7.86109 9.23431 8.54665C9.40836 8.73208 9.6942 8.75831 9.89842 8.60675C10.4063 8.2298 11.4045 7.48921 12.6448 6.56883C12.9175 6.36621 13.3031 6.42323 13.5052 6.69598C13.6905 6.9447 13.6899 7.32587 13.3322 7.59091Z" fill="url(#paint2_linear_1215_1575)"/>
<defs>
<linearGradient id="paint0_linear_1215_1575" x1="10.5001" y1="13.6604" x2="10.5001" y2="21.0003" gradientUnits="userSpaceOnUse">
<stop stop-color="#FFBA0D"/>
<stop offset="1" stop-color="#FFD66F"/>
</linearGradient>
<linearGradient id="paint1_linear_1215_1575" x1="10.5003" y1="0" x2="10.5003" y2="16.7589" gradientUnits="userSpaceOnUse">
<stop stop-color="#FFBA0D"/>
<stop offset="1" stop-color="#FFD66F"/>
</linearGradient>
<linearGradient id="paint2_linear_1215_1575" x1="10.5043" y1="2.76709" x2="10.5043" y2="13.9951" gradientUnits="userSpaceOnUse">
<stop stop-color="#FFBA0D"/>
<stop offset="1" stop-color="#FFD66F"/>
</linearGradient>
</defs>
</svg>
