<svg width="27" height="30" viewBox="0 0 27 30" fill="none" xmlns="http://www.w3.org/2000/svg">
<path d="M26.1037 29.9999C26.2244 26.7392 24.1707 25.4851 24.1707 25.4851L15.5188 20.5941H10.5897L1.93803 25.4851C1.93803 25.4851 -0.115534 26.7392 0.00511543 29.9999H26.1037Z" fill="#F9C5B8"/>
<path d="M9.97437 21.2264H16.1344C14.7695 20.4894 15.1374 17.656 15.1374 17.656H10.9714C10.9714 17.656 11.3392 20.4894 9.97437 21.2264Z" fill="#F9C5B8"/>
<path d="M10.8861 19.7861C12.3579 19.618 13.7984 19.1247 15.093 18.3954C15.0981 17.9605 15.1374 17.656 15.1374 17.656H10.9715C10.9714 17.6559 11.1159 18.7725 10.8861 19.7861Z" fill="#F5A997"/>
<path d="M19.8945 6.45044H6.25587C5.72161 10.7115 6.993 15.9335 11.1177 17.3573C11.7063 17.5604 12.4658 17.8235 13.0752 17.6749C13.6846 17.8235 14.4441 17.5604 15.0328 17.3573C19.1575 15.9335 20.4287 10.7115 19.8945 6.45044Z" fill="#542D6D"/>
<path d="M20.2396 11.344C20.11 12.3462 19.5428 13.0904 18.973 13.0061C18.4031 12.9219 18.0463 12.0411 18.1759 11.0389C18.3056 10.0367 18.8726 9.29253 19.4425 9.37674C20.0125 9.46107 20.3693 10.3418 20.2396 11.344Z" fill="#F5A997"/>
<path d="M18.9649 12.2619C18.9265 12.2618 18.8891 12.2489 18.8589 12.2252C18.8287 12.2014 18.8072 12.1683 18.798 12.131C18.656 11.5559 18.5914 10.8743 19.1896 10.1805C19.2198 10.1475 19.2617 10.1276 19.3064 10.1249C19.351 10.1223 19.395 10.1372 19.4288 10.1664C19.4627 10.1956 19.4839 10.2368 19.4879 10.2814C19.4919 10.326 19.4784 10.3703 19.4502 10.4051C18.9308 11.0075 19.0136 11.5692 19.1319 12.0485C19.1374 12.0705 19.1384 12.0932 19.135 12.1156C19.1317 12.1379 19.1239 12.1594 19.1122 12.1787C19.1005 12.198 19.0852 12.2149 19.067 12.2283C19.0488 12.2416 19.0281 12.2513 19.0062 12.2567C18.9927 12.2601 18.9788 12.2619 18.9649 12.2619Z" fill="#E9837B"/>
<path d="M19.5431 11.2636C19.5325 11.2636 19.5217 11.2626 19.5108 11.2605C19.2347 11.2083 18.9502 11.2602 18.9473 11.2605C18.9025 11.2688 18.8562 11.2591 18.8186 11.2334C18.7809 11.2076 18.755 11.1681 18.7465 11.1233C18.7381 11.0785 18.7477 11.0322 18.7734 10.9946C18.7991 10.9569 18.8386 10.931 18.8834 10.9225C18.8975 10.9197 19.233 10.8574 19.575 10.9225C19.6171 10.9304 19.6547 10.9538 19.6805 10.988C19.7063 11.0222 19.7184 11.0649 19.7144 11.1075C19.7104 11.1502 19.6907 11.1899 19.659 11.2187C19.6273 11.2476 19.586 11.2636 19.5431 11.2636Z" fill="#E9837B"/>
<path d="M5.8691 11.344C5.99882 12.3462 6.56588 13.0904 7.13573 13.0061C7.70564 12.9219 8.06243 12.0411 7.93285 11.0389C7.80314 10.0367 7.23607 9.29253 6.66623 9.37674C6.09638 9.46107 5.73952 10.3418 5.8691 11.344Z" fill="#F5A997"/>
<path d="M7.14374 12.262C7.11762 12.2621 7.09183 12.2562 7.06833 12.2448C7.04483 12.2334 7.02424 12.2167 7.00813 12.1962C6.99201 12.1756 6.9808 12.1517 6.97533 12.1261C6.96987 12.1006 6.9703 12.0741 6.97659 12.0488C7.09493 11.5695 7.17774 11.0078 6.6583 10.4053C6.64355 10.3882 6.63232 10.3684 6.62524 10.3469C6.61816 10.3254 6.61538 10.3028 6.61705 10.2803C6.61872 10.2578 6.62481 10.2358 6.63498 10.2156C6.64514 10.1954 6.65918 10.1774 6.67629 10.1627C6.6934 10.1479 6.71325 10.1367 6.73471 10.1296C6.75616 10.1226 6.7788 10.1198 6.80133 10.1214C6.82386 10.1231 6.84584 10.1292 6.86602 10.1394C6.88619 10.1495 6.90417 10.1636 6.91892 10.1807C7.51714 10.8746 7.45251 11.5561 7.3105 12.1312C7.30134 12.1685 7.27994 12.2017 7.24971 12.2254C7.21948 12.2491 7.18217 12.262 7.14374 12.262Z" fill="#E9837B"/>
<path d="M7.19342 11.2636C7.18267 11.2636 7.17196 11.2625 7.1614 11.2605C7.15644 11.2597 6.87314 11.2083 6.59791 11.2605C6.55309 11.269 6.50673 11.2593 6.46903 11.2337C6.43132 11.208 6.40535 11.1684 6.39682 11.1236C6.39261 11.1014 6.3928 11.0786 6.3974 11.0565C6.402 11.0344 6.41091 11.0134 6.42362 10.9947C6.43634 10.976 6.45261 10.96 6.4715 10.9476C6.4904 10.9353 6.51155 10.9267 6.53375 10.9225C6.87559 10.8574 7.21134 10.9198 7.22537 10.9225C7.26755 10.9304 7.30527 10.9537 7.33113 10.988C7.35698 11.0222 7.36909 11.0649 7.36509 11.1076C7.36109 11.1503 7.34126 11.19 7.3095 11.2189C7.27773 11.2477 7.23633 11.2637 7.19342 11.2636Z" fill="#E9837B"/>
<path d="M18.8263 8.94231C18.7241 6.08317 16.9693 2.55113 13.3713 2.57051H12.636C9.03787 2.55113 7.28322 6.08311 7.18103 8.94231C7.0783 11.816 7.95943 15.1303 9.74914 16.8929C10.5882 17.7191 11.8611 18.1165 13.0036 18.1363C14.1461 18.1165 15.4191 17.7191 16.2581 16.8929C18.048 15.1303 18.929 11.816 18.8263 8.94231Z" fill="#F9C5B8"/>
<path d="M7.36597 12.0176C7.36597 12.0176 7.5875 11.925 7.58551 8.73736C8.09543 7.45479 9.22189 8.00876 10.3929 7.76383C11.4857 7.53523 11.8991 6.53881 12.4136 5.67727C13.1095 4.51185 14.8107 5.28403 15.6859 4.42857C15.6859 5.87048 16.2559 6.88912 17.4221 7.81813C18.7538 8.87891 18.4823 10.4157 18.5594 12.0085C19.1492 11.5909 18.6811 9.59361 19.4968 9.53765C19.4968 9.53765 21.3917 4.67992 17.2102 2.06856C16.6759 -0.328618 13.2021 -0.806652 11.895 1.50785C7.95943 -0.31056 6.8796 4.20381 6.8796 4.20381C5.45767 5.31287 5.83424 8.50598 6.69519 9.43473C7.19327 9.9719 7.03551 10.7731 7.36597 12.0176Z" fill="#542D6D"/>
<path d="M15.5188 20.5938L24.1707 25.4847C24.1707 25.4847 26.2242 26.7389 26.1037 29.9996H0.00512078C-0.115595 26.7389 1.93803 25.4847 1.93803 25.4847L10.5897 20.5938C10.5896 20.5938 13.2019 22.1976 15.5188 20.5938Z" fill="#4E5DA7"/>
<path d="M12.96 15.5389C12.1601 15.5389 11.6534 15.0933 11.6459 15.0865C11.6128 15.0557 11.5931 15.0132 11.5911 14.9681C11.5891 14.9229 11.6049 14.8788 11.6352 14.8452C11.6654 14.8117 11.7077 14.7913 11.7528 14.7887C11.7979 14.786 11.8422 14.8011 11.8762 14.8309C11.9157 14.8659 12.8276 15.6526 14.1541 14.8135C14.1927 14.7891 14.2393 14.781 14.2838 14.7911C14.3284 14.8011 14.3671 14.8284 14.3914 14.8669C14.4158 14.9055 14.4239 14.9522 14.4139 14.9967C14.4038 15.0412 14.3766 15.0799 14.338 15.1043C13.8235 15.4298 13.3559 15.5389 12.96 15.5389Z" fill="#E9837B"/>
<path d="M10.4324 12.8452C11.2029 12.8452 11.8275 12.5615 11.8275 12.2115C11.8275 11.8615 11.2029 11.5778 10.4324 11.5778C9.66195 11.5778 9.03735 11.8615 9.03735 12.2115C9.03735 12.5615 9.66195 12.8452 10.4324 12.8452Z" fill="#F6AFA8"/>
<path d="M15.5749 12.8452C16.3454 12.8452 16.97 12.5615 16.97 12.2115C16.97 11.8615 16.3454 11.5778 15.5749 11.5778C14.8044 11.5778 14.1798 11.8615 14.1798 12.2115C14.1798 12.5615 14.8044 12.8452 15.5749 12.8452Z" fill="#F6AFA8"/>
<path d="M11.4879 8.97153C11.471 9.13511 11.3418 9.24471 11.1993 9.23102C10.6785 9.1796 10.1534 9.2667 9.67712 9.4835C9.54655 9.54243 9.38899 9.48045 9.32006 9.33096C9.25134 9.18194 9.3155 8.99151 9.46902 8.92192C10.0153 8.67315 10.6176 8.57327 11.2149 8.6324C11.3826 8.64867 11.5049 8.80828 11.4879 8.97153ZM14.5192 8.97153C14.5362 9.13511 14.6654 9.24471 14.8079 9.23102C15.3287 9.1796 15.8537 9.2667 16.33 9.4835C16.4606 9.54243 16.6181 9.48045 16.687 9.33096C16.7558 9.18194 16.6915 8.99151 16.5381 8.92192C15.9918 8.67315 15.3895 8.57327 14.7922 8.6324C14.6246 8.64867 14.5023 8.80828 14.5192 8.97153Z" fill="#542D6D"/>
<path d="M12.9463 14.2246C12.9245 14.2246 12.9023 14.2204 12.8809 14.2116C12.5109 14.0594 12.3094 13.8884 12.247 13.6735C12.1646 13.3899 12.3453 13.1343 12.5365 12.8637C12.6562 12.6943 12.7801 12.5191 12.8402 12.3359C12.8545 12.2925 12.8854 12.2566 12.9261 12.2361C12.9668 12.2155 13.0141 12.2119 13.0574 12.2261C13.1008 12.2403 13.1367 12.2712 13.1572 12.3119C13.1778 12.3526 13.1814 12.3999 13.1672 12.4432C13.0908 12.6755 12.9456 12.881 12.8174 13.0623C12.6754 13.2633 12.5413 13.4531 12.5774 13.5775C12.5981 13.6486 12.6902 13.7612 13.0118 13.8935C13.0486 13.9086 13.079 13.9361 13.0979 13.9712C13.1167 14.0063 13.1228 14.0468 13.115 14.0859C13.1073 14.125 13.0863 14.1602 13.0555 14.1855C13.0247 14.2107 12.9861 14.2246 12.9463 14.2246Z" fill="#E9837B"/>
<path d="M10.7135 11.5775C10.9668 11.5775 11.1722 11.1906 11.1722 10.7134C11.1722 10.2361 10.9668 9.84924 10.7135 9.84924C10.4601 9.84924 10.2548 10.2361 10.2548 10.7134C10.2548 11.1906 10.4601 11.5775 10.7135 11.5775Z" fill="#2A2D6B"/>
<path d="M15.2938 11.5775C15.5471 11.5775 15.7525 11.1906 15.7525 10.7134C15.7525 10.2361 15.5471 9.84924 15.2938 9.84924C15.0405 9.84924 14.8351 10.2361 14.8351 10.7134C14.8351 11.1906 15.0405 11.5775 15.2938 11.5775Z" fill="#2A2D6B"/>
</svg>
