<svg width="53" height="45" viewBox="0 0 53 45" fill="none" xmlns="http://www.w3.org/2000/svg">
<rect width="53" height="45" rx="12" fill="white"/>
<path d="M41.5 16.9003C41.5 16.0125 40.811 15.286 39.9688 15.286H29.2504C28.4083 15.286 27.7192 16.0125 27.7192 16.9003C27.7192 17.7882 28.4083 18.5147 29.2504 18.5147H39.9688C40.811 18.5147 41.5 17.7882 41.5 16.9003ZM27.7192 29.8149C27.7192 30.7028 28.4083 31.4292 29.2504 31.4292H39.9688C40.811 31.4292 41.5 30.7028 41.5 29.8149C41.5 28.927 40.811 28.2006 39.9688 28.2006H29.2504C28.4083 28.2006 27.7192 28.927 27.7192 29.8149ZM23.8453 11.4601C24.4425 12.0897 24.4425 13.1067 23.8453 13.7363L17.3683 20.5971C16.7711 21.2267 15.8065 21.2267 15.194 20.5971L11.9479 17.1586C11.3507 16.529 11.3507 15.512 11.9479 14.8824C12.545 14.2529 13.5097 14.2529 14.1069 14.8824L16.2812 17.1748L21.7016 11.4601C22.2835 10.8466 23.2634 10.8466 23.8453 11.4601ZM23.8606 24.3908C24.4578 25.0204 24.4578 26.0374 23.8606 26.667L17.3836 33.5278C16.7865 34.1574 15.8218 34.1574 15.2093 33.5278L11.9479 30.0732C11.3507 29.4436 11.3507 28.4266 11.9479 27.797C12.545 27.1674 13.5097 27.1674 14.1069 27.797L16.2812 30.0893L21.7016 24.3746C22.2835 23.7612 23.2634 23.7612 23.8606 24.3908Z" fill="#9C16C8"/>
</svg>
