<svg width="10" height="10" viewBox="0 0 10 10" fill="none" xmlns="http://www.w3.org/2000/svg">
<path d="M8.68234 0.251691L2.54325 0.251623C2.368 0.251623 2.20313 0.32031 2.07861 0.444832C1.95395 0.569492 1.8854 0.734369 1.88533 0.909543L1.8854 1.46699C1.88533 1.64202 1.95395 1.80711 2.07854 1.9317C2.20306 2.05622 2.37208 2.12878 2.54712 2.12871L6.13247 2.13265L0.443306 7.82182C0.186799 8.07832 0.184934 8.48181 0.441509 8.73838L0.835598 9.13247C1.09217 9.38905 1.51591 9.40743 1.77241 9.15092L7.4819 3.44144L7.47561 7.05706C7.47568 7.23224 7.54112 7.39414 7.66571 7.51873C7.79016 7.64319 7.95372 7.71028 8.12883 7.71028L8.68538 7.70945C8.86062 7.70945 9.02508 7.64049 9.14974 7.51583C9.27426 7.39131 9.34268 7.22616 9.34268 7.05091L9.34268 0.911891C9.34261 0.736165 9.27357 0.570528 9.1485 0.446144C9.02363 0.320724 8.858 0.251553 8.68234 0.251691Z" fill="url(#paint0_linear_2464_2795)" stroke="white" stroke-width="0.5"/>
<defs>
<linearGradient id="paint0_linear_2464_2795" x1="1.36309" y1="1.16035" x2="8.43416" y2="8.23142" gradientUnits="userSpaceOnUse">
<stop stop-color="#002E9E"/>
<stop offset="1" stop-color="#002E9E"/>
</linearGradient>
</defs>
</svg>
