<svg width="46" height="46" viewBox="0 0 46 46" fill="none" xmlns="http://www.w3.org/2000/svg">
<rect width="46" height="46" rx="23" fill="#002E9E"/>
<path d="M32.9895 16.7233C33.0092 16.8435 32.9999 16.9667 32.9625 17.0827C32.925 17.1986 32.8604 17.3039 32.7741 17.3899L29.6972 20.4668C29.5835 20.5814 29.4365 20.6572 29.2771 20.6831C29.1178 20.7091 28.9543 20.684 28.8101 20.6114L27.2542 19.834L22.5178 24.5704C22.4466 24.6419 22.3618 24.6987 22.2686 24.7375C22.1753 24.7762 22.0753 24.7962 21.9743 24.7962C21.8732 24.7962 21.7732 24.7762 21.6799 24.7375C21.5867 24.6987 21.5019 24.6419 21.4307 24.5704C21.3592 24.4989 21.3025 24.4141 21.2638 24.3207C21.2251 24.2274 21.2052 24.1273 21.2052 24.0263C21.2052 23.9252 21.2251 23.8251 21.2638 23.7318C21.3025 23.6384 21.3592 23.5536 21.4307 23.4822L26.167 18.7458L25.3896 17.1899C25.3172 17.0457 25.2922 16.8822 25.3181 16.7229C25.3441 16.5636 25.4197 16.4166 25.5342 16.3028L28.6111 13.2259C28.6972 13.1395 28.8026 13.0749 28.9186 13.0373C29.0346 12.9998 29.1579 12.9904 29.2783 13.0099C29.3987 13.0295 29.5126 13.0774 29.6108 13.1497C29.709 13.222 29.7885 13.3167 29.8429 13.4259L30.7536 15.2474L32.5752 16.1581C32.6845 16.2123 32.7792 16.2919 32.8515 16.3902C32.9238 16.4886 32.9704 16.6028 32.9895 16.7233ZM22.9486 19.7899C22.6409 19.7079 22.3127 19.6668 21.9743 19.6668C19.5743 19.6668 17.6153 21.6258 17.6153 24.0257C17.6153 26.4257 19.5743 28.3847 21.9743 28.3847C24.3742 28.3847 26.3332 26.4257 26.3332 24.0257C26.3332 23.6873 26.2921 23.3591 26.2101 23.0514L23.605 25.6565C23.1742 26.0975 22.5896 26.3334 21.9743 26.3334C21.3589 26.3334 20.7743 26.0975 20.3435 25.6565C19.4409 24.7539 19.4409 23.2976 20.3435 22.395L22.9486 19.7899ZM29.1537 22.2309C28.8049 22.2309 28.446 22.1488 28.128 21.9847L27.5537 21.7078L27.4409 21.8206C27.7178 22.4976 27.8716 23.2463 27.8716 24.0257C27.8716 27.277 25.2255 29.9231 21.9743 29.9231C18.723 29.9231 16.0769 27.277 16.0769 24.0257C16.0769 20.7745 18.723 18.1284 21.9743 18.1284C22.7537 18.1284 23.5024 18.2822 24.1794 18.5591L24.2922 18.4463L24.0153 17.8822C23.5947 17.0515 23.7178 16.0566 24.3127 15.3592C23.564 15.1541 22.7845 15.0515 21.9743 15.0515C17.0205 15.0515 13 19.072 13 24.0257C13 28.9795 17.0205 33 21.9743 33C26.928 33 30.9485 28.9795 30.9485 24.0257C30.9485 23.2155 30.8459 22.436 30.6408 21.6873C30.2306 22.036 29.6972 22.2309 29.1537 22.2309Z" fill="white"/>
</svg>
